<svg width="16" height="16" viewBox="0 0 16 16" fill="none" xmlns="http://www.w3.org/2000/svg">
<path d="M16 8C16 12.4183 12.4183 16 8 16C3.58172 16 0 12.4183 0 8C0 3.58172 3.58172 0 8 0C12.4183 0 16 3.58172 16 8Z" fill="#F4F4F4"/>
<path d="M4.65775 6.65296C4.75879 6.55502 4.8958 6.5 5.03867 6.5C5.18154 6.5 5.31856 6.55502 5.41959 6.65296L8.08659 9.23897L10.7536 6.65296C10.8552 6.5578 10.9913 6.50514 11.1326 6.50633C11.2738 6.50752 11.409 6.56246 11.5089 6.65932C11.6088 6.75619 11.6654 6.88722 11.6666 7.0242C11.6679 7.16117 11.6136 7.29314 11.5154 7.39167L8.46751 10.347C8.36647 10.445 8.22945 10.5 8.08659 10.5C7.94372 10.5 7.8067 10.445 7.70566 10.347L4.65775 7.39167C4.55674 7.2937 4.5 7.16084 4.5 7.02232C4.5 6.88379 4.55674 6.75093 4.65775 6.65296Z" fill="#555555"/>
</svg>
