<svg width="28" height="27" viewBox="0 0 28 27" fill="none" xmlns="http://www.w3.org/2000/svg">
<path fill-rule="evenodd" clip-rule="evenodd" d="M24.8945 1.79492C24.7656 1.76562 24.6328 1.75 24.5 1.75H3.5C3.03516 1.75 2.58984 1.93359 2.26172 2.26172C1.93359 2.58984 1.75 3.03516 1.75 3.5V23.7754L5.25 20.2754C5.62109 19.9023 6.07031 19.623 6.55859 19.4492C6.92969 19.3184 7.32422 19.25 7.72266 19.25H24.5C24.9648 19.25 25.4102 19.0664 25.7383 18.7383C26.0664 18.4102 26.25 17.9648 26.25 17.5V3.5C26.25 3.23438 26.1914 2.97656 26.0781 2.74219C25.9922 2.56445 25.8789 2.40234 25.7383 2.26172C25.5039 2.02734 25.2109 1.86719 24.8945 1.79492ZM1.96484 0.353516C2.4375 0.123047 2.96484 0 3.5 0H24.5C25.4297 0 26.3203 0.369141 26.9766 1.02539C27.6328 1.68164 28 2.57227 28 3.5V17.5C28 18.4277 27.6328 19.3184 26.9766 19.9746C26.3203 20.6309 25.4297 21 24.5 21H7.72266C7.26172 21 6.81641 21.1836 6.48828 21.5137L1.49609 26.5059C1.4375 26.5645 1.37109 26.6133 1.29688 26.6543C1.21875 26.6973 1.13281 26.7285 1.04688 26.7461C0.875 26.7793 0.699219 26.7617 0.539062 26.6953C0.378906 26.6309 0.242188 26.5176 0.148438 26.375C0.0507812 26.2305 0 26.0605 0 25.8887V3.5C0 2.57227 0.367188 1.68164 1.02344 1.02539C1.30078 0.748047 1.62109 0.521484 1.96484 0.353516ZM5.50781 5.50586C5.34375 5.66992 5.25 5.89258 5.25 6.125C5.25 6.24609 5.27344 6.36328 5.32031 6.4707C5.36719 6.57227 5.42969 6.66602 5.50781 6.74414C5.67188 6.9082 5.89453 7 6.125 7H21.875C22.1055 7 22.3281 6.9082 22.4922 6.74414C22.6562 6.58008 22.75 6.35742 22.75 6.125C22.75 5.89258 22.6562 5.66992 22.4922 5.50586C22.3281 5.3418 22.1055 5.25 21.875 5.25H6.125C6 5.25 5.875 5.27734 5.76172 5.33008C5.66797 5.37305 5.58203 5.43164 5.50781 5.50586ZM5.50781 9.88086C5.34375 10.0449 5.25 10.2676 5.25 10.5C5.25 10.7324 5.34375 10.9551 5.50781 11.1191C5.67188 11.2832 5.89453 11.375 6.125 11.375H21.875C22.1055 11.375 22.3281 11.2832 22.4922 11.1191C22.6562 10.9551 22.75 10.7324 22.75 10.5C22.75 10.2676 22.6562 10.0449 22.4922 9.88086C22.3281 9.7168 22.1055 9.625 21.875 9.625H6.125C5.89453 9.625 5.67188 9.7168 5.50781 9.88086ZM5.50781 14.2559C5.34375 14.4199 5.25 14.6426 5.25 14.875C5.25 15.1074 5.34375 15.3301 5.50781 15.4941C5.67188 15.6582 5.89453 15.75 6.125 15.75H14.875C14.9961 15.75 15.1133 15.7246 15.2227 15.6777C15.3242 15.6348 15.4141 15.5723 15.4922 15.4941C15.6562 15.3301 15.75 15.1074 15.75 14.875C15.75 14.6426 15.6562 14.4199 15.4922 14.2559C15.3281 14.0918 15.1055 14 14.875 14H6.125C5.89453 14 5.67188 14.0918 5.50781 14.2559Z" fill="#878A92"/>
</svg>
