<svg width="28" height="28" viewBox="0 0 28 28" fill="none" xmlns="http://www.w3.org/2000/svg">
<path fill-rule="evenodd" clip-rule="evenodd" d="M26 0H2C1.74219 0 1.48438 0.0507812 1.25 0.146484C1.00391 0.246094 0.777344 0.394531 0.585938 0.585938C0.210938 0.960938 0 1.4707 0 2V26C0 26.5293 0.210938 27.0391 0.585938 27.4141C0.960938 27.7891 1.46875 28 2 28H26C26.5312 28 27.0391 27.7891 27.4141 27.4141C27.7891 27.0391 28 26.5293 28 26V2C28 1.4707 27.7891 0.960938 27.4141 0.585938C27.0391 0.210938 26.5312 0 26 0ZM26 9H12V2H26V9ZM10 2V9H2V2H10ZM2 26V11H26L26.0039 26H2ZM20 14H18V24H20V14ZM24 19H22V24H24V19ZM7.93359 17.6211C8.16406 17.5273 8.41406 17.4785 8.66406 17.4785C9 17.4805 9.32812 17.5664 9.61328 17.7266C9.75781 17.8066 9.89062 17.9062 10.0117 18.0234C10.3672 18.3711 10.5703 18.8418 10.5703 19.334C10.5703 19.5801 10.5195 19.8223 10.4219 20.0469C10.375 20.1582 10.3164 20.2637 10.25 20.3633C10.0391 20.6699 9.74219 20.9062 9.39453 21.0469C9.04688 21.1875 8.66406 21.2246 8.29297 21.1523C8.09766 21.1152 7.90625 21.0469 7.73438 20.9512C7.58203 20.8691 7.44531 20.7656 7.32031 20.6445C7.05078 20.3848 6.87109 20.0547 6.79688 19.6953C6.74219 19.4277 6.74609 19.1523 6.81641 18.8906C6.83984 18.8008 6.87109 18.7109 6.90625 18.623C7.05078 18.2852 7.29297 17.9941 7.60547 17.791C7.71094 17.7246 7.82031 17.668 7.93359 17.6211ZM12.7383 19.8516C12.7656 19.6797 12.7773 19.5059 12.7773 19.334C12.7773 19.1582 12.7656 18.9824 12.7383 18.8086L13.8984 17.9238C13.9492 17.8828 13.9844 17.8262 13.9961 17.7637C14.0078 17.7012 13.9922 17.6367 13.9609 17.582L12.8633 15.7363C12.832 15.6836 12.7773 15.6406 12.7188 15.6211C12.6562 15.5996 12.5898 15.6016 12.5273 15.623L11.1641 16.1562C10.8828 15.9414 10.5703 15.7656 10.2383 15.6309L10.0352 14.2207C10.0234 14.1602 9.98828 14.1035 9.9375 14.0645C9.89062 14.0234 9.82812 14.002 9.76172 14H7.57031C7.50391 14.002 7.44141 14.0254 7.39062 14.0664C7.33984 14.1074 7.30469 14.166 7.29297 14.2285L7.08984 15.6387C6.76172 15.7734 6.44922 15.9512 6.16797 16.1641L4.80469 15.6309C4.74219 15.6074 4.67578 15.6074 4.61328 15.627C4.55078 15.6484 4.5 15.6895 4.46484 15.7441L3.37109 17.5879C3.33594 17.6445 3.32422 17.709 3.33594 17.7715C3.34766 17.834 3.38281 17.8906 3.43359 17.9316L4.58984 18.8145C4.56641 18.9863 4.55469 19.1602 4.55078 19.334C4.55469 19.5098 4.56641 19.6855 4.58984 19.8594L3.43359 20.7422C3.38281 20.7832 3.34766 20.8398 3.33594 20.9023C3.32422 20.9668 3.33594 21.0312 3.37109 21.0859L4.46484 22.9297C4.5 22.9844 4.55078 23.0254 4.61328 23.0469C4.65234 23.0586 4.69141 23.0625 4.73047 23.0605L4.80469 23.043L6.16797 22.5098C6.44922 22.7246 6.76172 22.9023 7.08984 23.0371L7.29297 24.4453C7.30859 24.5078 7.34375 24.5625 7.39062 24.6035C7.44141 24.6426 7.50391 24.666 7.57031 24.666H9.76172C9.82812 24.666 9.89062 24.6426 9.94141 24.5996C9.96484 24.582 9.98438 24.5605 10 24.5352L10.0352 24.4375L10.2383 23.0293C10.5703 22.8926 10.8789 22.7168 11.1641 22.5039L12.5273 23.0371C12.5898 23.0586 12.6562 23.0605 12.7188 23.0391C12.7539 23.0254 12.7891 23.0039 12.8164 22.9785C12.8359 22.9629 12.8516 22.9434 12.8633 22.9219L13.9609 21.0781C13.9922 21.0234 14.0078 20.959 13.9961 20.8945C13.9844 20.832 13.9492 20.7754 13.8984 20.7344L12.7383 19.8516Z" fill="#878A92"/>
</svg>
