<svg width="65" height="65" viewBox="0 0 65 65" fill="none" xmlns="http://www.w3.org/2000/svg">
<path d="M34.6248 47.6152C34.9089 47.8983 35.1342 48.2346 35.288 48.605C35.4418 48.9754 35.521 49.3724 35.521 49.7734C35.521 50.1744 35.4418 50.5715 35.288 50.9419C35.1342 51.3122 34.9089 51.6486 34.6248 51.9316L33.1166 53.4398C30.2587 56.2977 26.3825 57.9033 22.3408 57.9033C18.2991 57.9033 14.423 56.2977 11.565 53.4398C8.70712 50.5819 7.10156 46.7058 7.10156 42.6641C7.10156 38.6223 8.70712 34.7462 11.565 31.8883L17.6893 25.7666C20.4352 23.0138 24.1298 21.4152 28.0162 21.2981C31.9026 21.1811 35.6867 22.5544 38.5934 25.1369C38.8934 25.4037 39.1381 25.7269 39.3132 26.0882C39.4884 26.4495 39.5907 26.8417 39.6143 27.2425C39.6378 27.6433 39.5822 28.0449 39.4506 28.4242C39.319 28.8035 39.114 29.1532 38.8473 29.4533C38.5805 29.7534 38.2573 29.998 37.896 30.1732C37.5347 30.3484 37.1425 30.4506 36.7416 30.4742C36.3408 30.4978 35.9393 30.4422 35.56 30.3106C35.1806 30.179 34.8309 29.974 34.5309 29.7072C32.7878 28.1592 30.5192 27.3357 28.1891 27.4051C25.8589 27.4744 23.6433 28.4315 21.9955 30.0805L15.8764 36.1945C14.1619 37.909 13.1987 40.2343 13.1987 42.659C13.1987 45.0836 14.1619 47.4089 15.8764 49.1234C17.5908 50.8379 19.9162 51.8011 22.3408 51.8011C24.7655 51.8011 27.0908 50.8379 28.8053 49.1234L30.3135 47.6152C30.5964 47.3319 30.9325 47.1072 31.3024 46.9539C31.6723 46.8005 32.0687 46.7216 32.4691 46.7216C32.8695 46.7216 33.266 46.8005 33.6359 46.9539C34.0058 47.1072 34.3418 47.3319 34.6248 47.6152ZM53.4342 11.5605C50.5739 8.70702 46.6986 7.10449 42.6584 7.10449C38.6181 7.10449 34.7429 8.70702 31.8826 11.5605L30.3744 13.0687C29.802 13.6411 29.4805 14.4175 29.4805 15.2269C29.4805 16.0364 29.802 16.8128 30.3744 17.3851C30.9468 17.9575 31.7231 18.2791 32.5326 18.2791C33.3421 18.2791 34.1184 17.9575 34.6908 17.3851L36.199 15.8769C37.9135 14.1625 40.2388 13.1993 42.6635 13.1993C45.0881 13.1993 47.4134 14.1625 49.1279 15.8769C50.8424 17.5914 51.8056 19.9168 51.8056 22.3414C51.8056 24.766 50.8424 27.0914 49.1279 28.8058L43.0062 34.9301C41.357 36.5783 39.1401 37.534 36.8094 37.6015C34.4787 37.669 32.2102 36.8432 30.4684 35.2932C30.1683 35.0264 29.8186 34.8214 29.4392 34.6898C29.0599 34.5582 28.6584 34.5026 28.2576 34.5262C27.8568 34.5497 27.4645 34.652 27.1032 34.8272C26.7419 35.0024 26.4187 35.247 26.152 35.5471C25.8852 35.8472 25.6802 36.1968 25.5486 36.5762C25.417 36.9555 25.3614 37.357 25.3849 37.7579C25.4085 38.1587 25.5108 38.5509 25.686 38.9122C25.8612 39.2735 26.1058 39.5967 26.4059 39.8635C29.3105 42.4454 33.092 43.8196 36.9766 43.7049C40.8612 43.5902 44.5551 41.9953 47.3023 39.2465L53.4266 33.1248C56.2834 30.2652 57.8888 26.3889 57.8902 22.3468C57.8916 18.3047 56.289 14.4272 53.4342 11.5656V11.5605Z" fill="white"/>
</svg>
