<svg width="28" height="26" viewBox="0 0 28 26" fill="none" xmlns="http://www.w3.org/2000/svg">
<path fill-rule="evenodd" clip-rule="evenodd" d="M14.1875 0.0566755C14.5898 0.0195661 14.9961 3.48813e-05 15.4023 3.48813e-05C17.0547 -0.00387137 18.6953 0.320347 20.2266 0.95316C21.7539 1.58597 23.1445 2.51761 24.3086 3.69144C26.6914 6.07035 28 9.23441 28 12.5996C28 15.9668 26.6914 19.1309 24.3086 21.5098C21.9297 23.8887 18.7695 25.2012 15.4023 25.2012C12.0352 25.2012 8.87109 23.8887 6.49219 21.5098L8.47266 19.5293C10.3203 21.3809 12.7852 22.4004 15.4023 22.4004C16.6797 22.4004 17.918 22.1582 19.0664 21.6934C20.2734 21.2071 21.3828 20.4766 22.332 19.5293C24.1797 17.6797 25.2031 15.2188 25.2031 12.5996C25.2031 9.98246 24.1797 7.52152 22.332 5.67191C20.4805 3.82035 18.0195 2.80082 15.4023 2.80082C14.1367 2.80082 12.9102 3.0391 11.7695 3.49418C10.5469 3.9805 9.42969 4.71488 8.47266 5.67191L6.49219 3.69144C7.12891 3.05082 7.83203 2.48246 8.58984 1.99613C9.21875 1.58988 9.88281 1.24027 10.5781 0.95316C11.7305 0.474644 12.9492 0.173863 14.1875 0.0566755ZM7 18.1993L0 12.5996L7 7.00003V11.1993H19.5977V14H7V18.1993Z" fill="#878A92"/>
</svg>
