<svg width="468" height="383" viewBox="0 0 468 383" fill="none" xmlns="http://www.w3.org/2000/svg">
<g clip-path="url(#clip0_1714_2)">
<g filter="url(#filter0_b_1714_2)">
<path d="M373.374 146.163C374.629 146.084 393.173 146.228 393.445 146.249C394.247 146.252 395.047 146.342 395.83 146.516C397.13 146.787 398.382 147.256 399.541 147.906C401.151 148.809 402.562 150.028 403.69 151.489C405.143 153.354 406.083 155.566 406.417 157.906C406.518 158.561 406.575 159.221 406.588 159.884C406.588 160.547 406.588 161.21 406.588 161.895C406.588 163.263 406.588 164.696 406.588 166.172C406.642 172.108 406.685 178.931 406.749 186.577C406.824 201.881 406.909 220.489 407.016 241.91C407.016 247.264 407.037 252.789 407.08 258.486C407.08 261.338 407.08 264.229 407.08 267.159C407.08 268.624 407.08 270.1 407.08 271.587C407.08 272.325 407.08 273.073 407.08 273.822C407.067 274.631 406.996 275.439 406.866 276.239C406.313 279.563 404.626 282.594 402.091 284.816C399.557 287.039 396.332 288.316 392.964 288.43L373.479 288.494L374.634 287.425C373.372 301.124 372.045 315.594 370.655 330.609L370.441 332.951L368.623 331.454L316.317 288.355L317.173 288.655L209.994 288.708H184.83C183.974 288.708 183.194 288.708 182.285 288.708C179.984 288.656 177.728 288.065 175.696 286.984C173.665 285.904 171.914 284.362 170.585 282.484C169.526 280.994 168.747 279.323 168.286 277.554C167.89 275.837 167.728 274.074 167.805 272.314C167.805 269.034 167.805 265.762 167.805 262.496C167.805 255.987 167.805 249.524 167.805 243.108C167.805 217.441 167.858 192.737 167.879 169.177C167.879 166.236 167.879 163.306 167.879 160.408C167.838 158.836 168.037 157.268 168.468 155.756C168.906 154.234 169.581 152.791 170.468 151.478C172.249 148.892 174.807 146.941 177.772 145.906C179.225 145.388 180.753 145.11 182.295 145.083C183.75 145.083 185.108 145.083 186.52 145.083L218.988 145.147L277.261 145.318L361.651 145.757L384.59 146.024L390.557 146.163C392.39 146.228 394.36 146.334 395.032 146.441C394.361 146.555 391.238 146.463 390.557 146.441L396.054 147.083L384.59 146.58L361.651 146.848L277.261 147.286L218.988 147.457L186.52 147.521C185.14 147.521 183.696 147.521 182.349 147.521C181.064 147.544 179.792 147.779 178.585 148.216C176.13 149.084 174.014 150.71 172.542 152.858C171.055 155.064 170.306 157.685 170.403 160.344C170.403 163.242 170.403 166.172 170.403 169.113C170.403 192.641 170.457 217.398 170.489 243.043C170.489 249.46 170.489 255.923 170.489 262.432V272.25C170.411 273.78 170.547 275.313 170.895 276.805C171.455 278.979 172.609 280.953 174.228 282.508C175.846 284.063 177.866 285.136 180.06 285.607C180.793 285.76 181.537 285.85 182.285 285.874C183.044 285.874 183.932 285.874 184.755 285.874H210.122L317.301 285.928H317.782L318.157 286.238L370.345 329.475L368.302 330.32C369.746 315.348 371.136 300.846 372.463 287.158L372.559 286.088H373.628H393.049C395.915 286.003 398.663 284.929 400.827 283.048C402.991 281.166 404.437 278.594 404.92 275.768C405.029 275.085 405.09 274.396 405.102 273.704C405.102 272.955 405.102 272.207 405.102 271.469C405.102 269.982 405.102 268.507 405.102 267.042C405.102 264.111 405.102 261.22 405.102 258.368C405.102 252.665 405.123 247.139 405.166 241.792C405.273 220.403 405.358 201.763 405.433 186.459C405.497 178.813 405.54 171.99 405.594 166.055C405.594 164.579 405.594 163.146 405.594 161.777C405.594 161.092 405.594 160.429 405.594 159.766C405.593 159.144 405.554 158.523 405.476 157.906C405.201 155.703 404.365 153.607 403.048 151.82C402.01 150.396 400.697 149.192 399.188 148.281C398.09 147.612 396.761 147.414 395.519 147.083C393.111 146.441 373.374 146.27 373.374 146.163Z" fill="#42AB65"/>
<path d="M74.7212 20.749L94.516 38.3233L96.1428 21.0578" fill="white"/>
<path d="M325.614 68.0702L341.925 26.5999L403.905 50.9771L387.595 92.4474L325.614 68.0702Z" fill="#F9FDFA" stroke="#42AB65"/>
<mask id="path-4-inside-1_1714_2" fill="white">
<path d="M404.548 51.2425C404.292 51.3873 404.022 51.5028 403.74 51.5868L401.365 52.4299L392.673 55.4342L363.806 65.1594L363.569 65.2425L363.438 65.0169L363.141 64.4944L347.799 37.6936C345.899 34.2975 344.332 31.5307 343.216 29.5358L342.028 27.3034C341.871 27.0522 341.74 26.7856 341.636 26.5078C341.826 26.7367 341.993 26.9832 342.135 27.244L343.453 29.4171C344.641 31.3882 346.22 34.1669 348.203 37.4799L363.64 64.1857L363.937 64.72L363.581 64.5775L392.495 55.0779L401.27 52.2518L403.645 51.5156C403.939 51.4019 404.24 51.3106 404.548 51.2425Z"/>
</mask>
<path d="M404.548 51.2425C404.292 51.3873 404.022 51.5028 403.74 51.5868L401.365 52.4299L392.673 55.4342L363.806 65.1594L363.569 65.2425L363.438 65.0169L363.141 64.4944L347.799 37.6936C345.899 34.2975 344.332 31.5307 343.216 29.5358L342.028 27.3034C341.871 27.0522 341.74 26.7856 341.636 26.5078C341.826 26.7367 341.993 26.9832 342.135 27.244L343.453 29.4171C344.641 31.3882 346.22 34.1669 348.203 37.4799L363.64 64.1857L363.937 64.72L363.581 64.5775L392.495 55.0779L401.27 52.2518L403.645 51.5156C403.939 51.4019 404.24 51.3106 404.548 51.2425Z" fill="#F9FDFA"/>
<path d="M404.548 51.2425L405.041 52.1122L404.331 50.2662L404.548 51.2425ZM403.74 51.5868L403.454 50.6286L403.43 50.6359L403.406 50.6444L403.74 51.5868ZM401.365 52.4299L401.692 53.3751L401.7 53.3723L401.365 52.4299ZM392.673 55.4342L392.992 56.3819L393 56.3793L392.673 55.4342ZM363.806 65.1594L363.487 64.2117L363.476 64.2155L363.806 65.1594ZM363.569 65.2425L362.703 65.7435L363.118 66.4598L363.899 66.1864L363.569 65.2425ZM363.438 65.0169L362.569 65.5109L362.573 65.5179L363.438 65.0169ZM363.141 64.4944L364.011 64.0004L364.009 63.9976L363.141 64.4944ZM347.799 37.6936L346.927 38.1819L346.931 38.1904L347.799 37.6936ZM343.216 29.5358L342.333 30.0054L342.338 30.0148L342.343 30.0241L343.216 29.5358ZM342.028 27.3034L342.911 26.8338L342.895 26.8026L342.876 26.7726L342.028 27.3034ZM341.636 26.5078L342.407 25.8701L340.699 26.8561L341.636 26.5078ZM342.135 27.244L341.257 27.7228L341.268 27.743L341.28 27.7626L342.135 27.244ZM343.453 29.4171L344.31 28.9011L344.308 28.8985L343.453 29.4171ZM348.203 37.4799L349.069 36.9794L349.065 36.9728L349.061 36.9663L348.203 37.4799ZM363.64 64.1857L364.514 63.7L364.51 63.6926L364.506 63.6852L363.64 64.1857ZM363.937 64.72L363.565 65.6485L366.177 66.6932L364.811 64.2344L363.937 64.72ZM363.581 64.5775L363.268 63.6275L360.658 64.4853L363.209 65.506L363.581 64.5775ZM392.495 55.0779L392.189 54.126L392.183 54.1279L392.495 55.0779ZM401.27 52.2518L400.974 51.2966L400.964 51.2999L401.27 52.2518ZM403.645 51.5156L403.941 52.4707L403.974 52.4605L404.006 52.448L403.645 51.5156ZM404.054 50.3727C403.865 50.4803 403.663 50.5662 403.454 50.6286L404.026 52.545C404.38 52.4394 404.72 52.2943 405.041 52.1122L404.054 50.3727ZM403.406 50.6444L401.031 51.4875L401.7 53.3723L404.075 52.5292L403.406 50.6444ZM401.039 51.4848L392.347 54.489L393 56.3793L401.692 53.375L401.039 51.4848ZM392.354 54.4865L363.487 64.2117L364.125 66.1071L392.992 56.3818L392.354 54.4865ZM363.476 64.2155L363.238 64.2987L363.899 66.1864L364.137 66.1033L363.476 64.2155ZM364.434 64.7415L364.304 64.5159L362.573 65.5179L362.703 65.7435L364.434 64.7415ZM364.308 64.5229L364.011 64.0004L362.272 64.9884L362.569 65.5109L364.308 64.5229ZM364.009 63.9976L348.667 37.1968L346.931 38.1904L362.273 64.9912L364.009 63.9976ZM348.672 37.2054C347.721 35.5061 346.854 33.9644 346.085 32.5986C345.316 31.2323 344.646 30.0435 344.088 29.0475L342.343 30.0241C342.902 31.0231 343.574 32.2151 344.342 33.5799C345.111 34.9453 345.977 36.485 346.927 38.1818L348.672 37.2054ZM344.099 29.0662L342.911 26.8338L341.145 27.773L342.333 30.0054L344.099 29.0662ZM342.876 26.7726C342.755 26.579 342.653 26.3736 342.574 26.1595L340.699 26.8561C340.826 27.1977 340.987 27.5255 341.181 27.8342L342.876 26.7726ZM340.866 27.1456C341.015 27.325 341.146 27.5183 341.257 27.7228L343.013 26.7653C342.84 26.4481 342.637 26.1483 342.407 25.8701L340.866 27.1456ZM341.28 27.7626L342.598 29.9357L344.308 28.8985L342.99 26.7254L341.28 27.7626ZM342.597 29.9331C343.812 31.9511 345.317 34.6052 347.345 37.9935L349.061 36.9663C347.123 33.7285 345.469 30.8254 344.31 28.9011L342.597 29.9331ZM347.337 37.9803L362.774 64.6861L364.506 63.6852L349.069 36.9794L347.337 37.9803ZM362.766 64.6713L363.063 65.2057L364.811 64.2344L364.514 63.7L362.766 64.6713ZM364.308 63.7916L363.952 63.6491L363.209 65.506L363.565 65.6485L364.308 63.7916ZM363.893 65.5276L392.807 56.028L392.183 54.1279L363.268 63.6275L363.893 65.5276ZM392.802 56.0298L401.577 53.2036L400.964 51.2999L392.189 54.1261L392.802 56.0298ZM401.566 53.2069L403.941 52.4707L403.349 50.5604L400.974 51.2966L401.566 53.2069ZM404.006 52.448C404.253 52.3526 404.506 52.2759 404.764 52.2187L404.331 50.2662C403.975 50.3452 403.625 50.4511 403.284 50.5831L404.006 52.448Z" fill="#42AB65" mask="url(#path-4-inside-1_1714_2)"/>
<mask id="path-6-inside-2_1714_2" fill="white">
<path d="M324.989 68.9127C324.905 68.7702 331.923 64.816 340.651 60.0899C349.379 55.3639 356.539 51.6471 356.622 51.7778C356.705 51.9084 349.688 55.8745 340.948 60.6005C332.208 65.3266 324.989 69.0671 324.989 68.9127Z"/>
</mask>
<path d="M324.989 68.9127C324.905 68.7702 331.923 64.816 340.651 60.0899C349.379 55.3639 356.539 51.6471 356.622 51.7778C356.705 51.9084 349.688 55.8745 340.948 60.6005C332.208 65.3266 324.989 69.0671 324.989 68.9127Z" fill="#F9FDFA"/>
<path d="M324.989 68.9127H325.989V68.6423L325.852 68.4088L324.989 68.9127ZM325.852 68.4088C326.128 68.8814 325.906 69.3089 325.874 69.3694C325.814 69.4837 325.746 69.5558 325.73 69.5735C325.686 69.6202 325.654 69.6432 325.667 69.6325C325.683 69.6204 325.731 69.5863 325.826 69.5243C326.009 69.4051 326.295 69.2291 326.684 68.9985C327.457 68.5397 328.591 67.8888 330.007 67.0914C332.835 65.4978 336.767 63.3305 341.127 60.9693L340.175 59.2106C335.808 61.5754 331.866 63.7483 329.025 65.3489C327.605 66.1486 326.455 66.8083 325.663 67.2787C325.269 67.5128 324.953 67.706 324.734 67.8487C324.628 67.9177 324.525 67.9878 324.442 68.0516C324.407 68.0789 324.339 68.1327 324.273 68.203C324.245 68.2325 324.17 68.3146 324.105 68.437C324.069 68.5057 323.846 68.9396 324.125 69.4166L325.852 68.4088ZM341.127 60.9693C345.488 58.6082 349.454 56.5002 352.34 54.9998C353.783 54.2491 354.951 53.6529 355.761 53.2538C356.168 53.0532 356.475 52.9073 356.677 52.817C356.782 52.7703 356.84 52.7472 356.863 52.739C356.88 52.7327 356.85 52.745 356.796 52.7562C356.775 52.7604 356.69 52.7779 356.577 52.7738C356.548 52.7727 356.068 52.7701 355.779 52.3146L357.466 51.2409C357.173 50.7813 356.688 50.7765 356.65 50.7751C356.527 50.7706 356.429 50.7897 356.392 50.7972C356.305 50.8151 356.229 50.8414 356.188 50.8563C356.092 50.8905 355.979 50.9385 355.863 50.9901C355.624 51.0966 355.289 51.2565 354.877 51.4599C354.048 51.8685 352.865 52.4724 351.417 53.2254C348.519 54.7322 344.542 56.8456 340.175 59.2106L341.127 60.9693ZM355.779 52.3146C355.46 51.8142 355.721 51.3488 355.745 51.3044C355.807 51.192 355.876 51.1215 355.891 51.1058C355.933 51.0618 355.964 51.0404 355.949 51.0515C355.932 51.0647 355.883 51.0993 355.788 51.1612C355.604 51.2803 355.316 51.4563 354.927 51.6866C354.154 52.1451 353.019 52.7966 351.603 53.5947C348.772 55.1898 344.838 57.3599 340.472 59.7209L341.424 61.4802C345.797 59.1151 349.742 56.9391 352.585 55.337C354.005 54.5365 355.155 53.8766 355.947 53.407C356.341 53.1733 356.657 52.9811 356.875 52.8399C356.98 52.7715 357.082 52.7029 357.163 52.6413C357.197 52.6151 357.263 52.5634 357.328 52.4965C357.354 52.4693 357.431 52.3892 357.497 52.2689C357.526 52.2167 357.787 51.7454 357.466 51.2409L355.779 52.3146ZM340.472 59.7209C336.106 62.0819 332.121 64.196 329.229 65.6995C327.783 66.4518 326.614 67.049 325.809 67.4475C325.405 67.6477 325.102 67.7931 324.905 67.8821C324.802 67.9285 324.748 67.9505 324.729 67.9573C324.71 67.9643 324.751 67.9473 324.82 67.934C324.835 67.9311 324.969 67.9023 325.141 67.928C325.229 67.941 325.432 67.9826 325.63 68.1473C325.87 68.3475 325.989 68.6346 325.989 68.9127H323.989C323.989 69.1932 324.108 69.4823 324.35 69.6839C324.549 69.85 324.756 69.8926 324.847 69.9062C325.026 69.9329 325.17 69.9032 325.199 69.8976C325.296 69.879 325.379 69.8492 325.414 69.8361C325.506 69.8028 325.615 69.7556 325.727 69.7053C325.958 69.6009 326.288 69.4424 326.697 69.2398C327.519 68.8326 328.701 68.2283 330.152 67.474C333.055 65.9644 337.05 63.8452 341.424 61.4802L340.472 59.7209Z" fill="#42AB65" mask="url(#path-6-inside-2_1714_2)"/>
<mask id="path-8-inside-3_1714_2" fill="white">
<path d="M377.7 59.4961C377.854 59.4961 380.264 67.0602 383.067 76.4885C385.869 85.9169 388.019 93.6116 387.817 93.6591C387.615 93.7066 385.252 86.095 382.449 76.6667C379.647 67.2383 377.533 59.5436 377.7 59.4961Z"/>
</mask>
<path d="M377.7 59.4961C377.854 59.4961 380.264 67.0602 383.067 76.4885C385.869 85.9169 388.019 93.6116 387.817 93.6591C387.615 93.7066 385.252 86.095 382.449 76.6667C379.647 67.2383 377.533 59.5436 377.7 59.4961Z" fill="#F9FDFA"/>
<path d="M377.7 59.4961V58.4961H377.56L377.425 58.5346L377.7 59.4961ZM377.7 60.4961C377.448 60.4961 377.265 60.4025 377.176 60.3467C377.081 60.2879 377.018 60.2261 376.985 60.1923C376.921 60.1251 376.884 60.0658 376.874 60.0501C376.849 60.0109 376.84 59.9875 376.848 60.0048C376.859 60.0302 376.885 60.0899 376.926 60.1968C377.005 60.4043 377.118 60.7224 377.263 61.1475C377.551 61.994 377.952 63.2263 378.437 64.7586C379.407 67.8214 380.708 72.0637 382.108 76.7735L384.025 76.2036C382.623 71.4851 381.318 67.2311 380.344 64.1547C379.857 62.6175 379.451 61.3695 379.156 60.5031C379.009 60.0717 378.887 59.7253 378.794 59.4823C378.748 59.3639 378.703 59.2519 378.661 59.1619C378.643 59.1215 378.61 59.0545 378.567 58.986C378.548 58.9557 378.503 58.8855 378.432 58.811C378.396 58.7735 378.329 58.7089 378.232 58.6483C378.139 58.5906 377.953 58.4961 377.7 58.4961V60.4961ZM382.108 76.7735C383.509 81.4843 384.745 85.7588 385.605 88.859C386.035 90.4105 386.37 91.6608 386.583 92.5225C386.691 92.9562 386.764 93.2768 386.804 93.4834C386.813 93.5338 386.82 93.5736 386.825 93.6038C386.83 93.6356 386.831 93.649 386.831 93.6488C386.831 93.6483 386.83 93.6387 386.83 93.6223C386.83 93.6084 386.829 93.5727 386.835 93.5242C386.839 93.4886 386.852 93.3747 386.913 93.2395C386.971 93.1113 387.158 92.7868 387.588 92.6857L388.046 94.6325C388.482 94.5299 388.674 94.2002 388.736 94.0631C388.801 93.919 388.817 93.7925 388.823 93.7407C388.835 93.6253 388.828 93.5238 388.824 93.4752C388.814 93.3608 388.791 93.23 388.767 93.1053C388.717 92.8453 388.634 92.4832 388.524 92.0415C388.304 91.1525 387.964 89.8809 387.532 88.3243C386.667 85.2082 385.428 80.9211 384.025 76.2036L382.108 76.7735ZM387.588 92.6857C387.994 92.5901 388.291 92.7742 388.383 92.8396C388.492 92.9164 388.556 92.996 388.577 93.0224C388.605 93.0574 388.622 93.0849 388.628 93.0956C388.632 93.1022 388.635 93.1073 388.637 93.1102C388.638 93.1132 388.639 93.115 388.639 93.1152C388.64 93.1153 388.638 93.1118 388.634 93.1037C388.63 93.0957 388.625 93.0848 388.619 93.0705C388.606 93.0418 388.59 93.0039 388.571 92.9557C388.491 92.7585 388.378 92.448 388.233 92.0248C387.943 91.1835 387.545 89.9521 387.062 88.4166C386.098 85.3482 384.809 81.0938 383.408 76.3817L381.491 76.9516C382.893 81.6678 384.186 85.9334 385.154 89.0161C385.638 90.556 386.043 91.8079 386.341 92.6751C386.489 93.106 386.616 93.4561 386.715 93.7029C386.763 93.8215 386.815 93.9431 386.868 94.0442C386.891 94.0881 386.938 94.1736 387.006 94.2602C387.037 94.2999 387.111 94.3892 387.228 94.4719C387.329 94.5432 387.633 94.7296 388.046 94.6325L387.588 92.6857ZM383.408 76.3817C382.008 71.6722 380.781 67.3979 379.925 64.2975C379.497 62.7461 379.163 61.4944 378.948 60.6309C378.839 60.1969 378.764 59.8729 378.721 59.6619C378.699 59.552 378.69 59.4964 378.688 59.4791C378.686 59.463 378.693 59.5045 378.689 59.5714C378.688 59.5979 378.683 59.6977 378.642 59.8212C378.616 59.899 378.467 60.317 377.974 60.4576L377.425 58.5346C376.927 58.6767 376.774 59.0999 376.745 59.1865C376.701 59.319 376.694 59.4315 376.692 59.4741C376.687 59.5736 376.696 59.6621 376.701 59.7072C376.713 59.8125 376.736 59.9363 376.761 60.0597C376.813 60.3154 376.897 60.6741 377.007 61.1154C377.229 62.0027 377.568 63.2728 377.997 64.8296C378.857 67.9455 380.088 72.2328 381.491 76.9516L383.408 76.3817Z" fill="#42AB65" mask="url(#path-8-inside-3_1714_2)"/>
<path d="M389.302 248.1L405.612 206.629L467.592 231.006L451.282 272.477L389.302 248.1Z" fill="#F9FDFA" stroke="#42AB65"/>
<path d="M468.219 231.261C467.965 231.405 467.694 231.516 467.412 231.593L465.037 232.448L456.345 235.417L427.49 245.142L427.252 245.225L427.121 245L426.825 244.477L411.495 217.677L406.923 209.554L405.735 207.322C405.578 207.073 405.45 206.806 405.355 206.526C405.542 206.755 405.705 207.002 405.842 207.263L407.172 209.436L411.922 217.498L427.359 244.204L427.668 244.727L427.3 244.596L456.226 235.037L464.989 232.223L467.364 231.487C467.643 231.39 467.929 231.314 468.219 231.261Z" fill="#42AB65"/>
<path d="M388.624 248.929C388.553 248.787 395.571 244.833 404.299 240.107C413.026 235.38 420.187 231.664 420.27 231.794C420.353 231.925 413.335 235.891 404.596 240.617C395.856 245.343 388.707 249.084 388.624 248.929Z" fill="#42AB65"/>
<path d="M441.359 239.514C441.525 239.514 443.936 247.066 446.738 256.506C449.54 265.946 451.678 273.617 451.488 273.665C451.298 273.712 448.911 266.113 446.109 256.672C443.306 247.232 441.228 239.561 441.359 239.514Z" fill="#42AB65"/>
<path d="M253.177 231.483C260.796 231.483 266.973 225.307 266.973 217.687C266.973 210.068 260.796 203.892 253.177 203.892C245.558 203.892 239.381 210.068 239.381 217.687C239.381 225.307 245.558 231.483 253.177 231.483Z" fill="#4EAC6D"/>
<path d="M300.66 231.483C308.279 231.483 314.455 225.307 314.455 217.687C314.455 210.068 308.279 203.892 300.66 203.892C293.041 203.892 286.864 210.068 286.864 217.687C286.864 225.307 293.041 231.483 300.66 231.483Z" fill="#42AB65"/>
<path d="M95.7023 214.96H304.007C307.808 214.96 311.453 216.47 314.14 219.157C316.828 221.845 318.338 225.49 318.338 229.29V341.645C318.338 345.446 316.828 349.091 314.14 351.779C311.453 354.466 307.808 355.976 304.007 355.976H95.7023C91.9045 355.976 88.2622 354.467 85.5767 351.782C82.8913 349.096 81.3826 345.454 81.3826 341.656V229.29C81.3812 227.409 81.7505 225.546 82.4695 223.807C83.1885 222.069 84.2431 220.489 85.5729 219.158C86.9028 217.827 88.4819 216.771 90.2199 216.051C91.958 215.331 93.8209 214.96 95.7023 214.96Z" fill="#42AB65"/>
<path d="M42.8883 42.5146H111.457C112.708 42.5146 113.908 43.0072 114.793 43.8838C115.678 44.7605 116.175 45.9495 116.175 47.1893V83.84C116.175 85.0798 115.678 86.2688 114.793 87.1455C113.908 88.0222 112.708 88.5146 111.457 88.5146H42.8883C41.6381 88.5146 40.4392 88.0225 39.5552 87.1465C38.6712 86.2705 38.1746 85.0824 38.1746 83.8435V47.1893C38.1741 46.5756 38.2957 45.9678 38.5324 45.4007C38.769 44.8335 39.1162 44.3182 39.5539 43.884C39.9917 43.4499 40.5115 43.1055 41.0836 42.8706C41.6557 42.6356 42.269 42.5146 42.8883 42.5146Z" fill="#42AB65"/>
<path d="M116.175 70.0146L132.675 65.5146L116.175 56.5146" fill="#42AB65"/>
<path d="M62.7898 69.7451C65.3387 69.7451 67.405 67.6788 67.405 65.1299C67.405 62.581 65.3387 60.5146 62.7898 60.5146C60.2409 60.5146 58.1746 62.581 58.1746 65.1299C58.1746 67.6788 60.2409 69.7451 62.7898 69.7451Z" fill="white"/>
<path d="M78.6745 69.7451C81.2234 69.7451 83.2897 67.6788 83.2897 65.1299C83.2897 62.581 81.2234 60.5146 78.6745 60.5146C76.1256 60.5146 74.0593 62.581 74.0593 65.1299C74.0593 67.6788 76.1256 69.7451 78.6745 69.7451Z" fill="white"/>
<path d="M94.5593 69.7451C97.1082 69.7451 99.1745 67.6788 99.1745 65.1299C99.1745 62.581 97.1082 60.5146 94.5593 60.5146C92.0104 60.5146 89.9441 62.581 89.9441 65.1299C89.9441 67.6788 92.0104 69.7451 94.5593 69.7451Z" fill="white"/>
<path d="M348.143 231.483C355.762 231.483 361.938 225.307 361.938 217.687C361.938 210.068 355.762 203.892 348.143 203.892C340.524 203.892 334.347 210.068 334.347 217.687C334.347 225.307 340.524 231.483 348.143 231.483Z" fill="#42AB65"/>
<g clip-path="url(#clip1_1714_2)">
<g filter="url(#filter1_d_1714_2)">
<path d="M221.465 244.591C226.321 240.344 230.29 235.224 234.478 230.344C235.367 234.867 236.198 239.462 235.61 244.073C235.173 249.017 233.494 253.782 230.942 258.029C232.72 260.544 233.775 263.457 235.241 266.143C238.071 271.417 241.907 276.196 246.792 279.701C245.115 280.474 243.294 280.888 241.448 280.918C244.376 285.192 245.256 290.531 244.389 295.59C243.125 293.781 241.814 292.013 240.427 290.301C238.587 296.386 234.637 301.789 229.113 305.037C229.579 301.572 230.374 298.155 230.595 294.659C229.557 297.474 228.805 300.407 227.361 303.058C225.748 306.482 223.399 309.476 220.897 312.292C221.159 308.915 220.73 305.52 219.636 302.314C218.505 304.976 218.107 307.875 217.199 310.621C215.597 315.645 214.149 320.77 211.811 325.519C210.807 327.867 208.286 328.839 206.075 329.723C202.493 331.021 198.485 332.112 194.731 330.773C191.247 329.624 186.836 328.719 185.411 324.852C182.243 317.656 180.118 310.039 178.17 302.441C176.534 305.401 176.346 308.913 176.615 312.222C173.674 309.001 171.085 305.437 169.354 301.411C168.426 299.213 167.813 296.9 166.951 294.674C167.139 298.155 167.939 301.561 168.476 304.996C162.934 301.905 158.884 296.42 157.286 290.312C155.66 291.995 154.27 293.89 153.152 295.946C152.156 290.744 153.175 285.276 156.153 280.884C154.297 280.929 152.505 280.463 150.799 279.789C154.263 277.076 157.436 273.975 159.816 270.241C162.579 266.397 164.154 261.874 166.67 257.887C164.801 253.782 163.133 249.535 162.436 245.062C161.811 240.209 162.032 235.286 163.09 230.509C167.718 235.629 171.877 241.262 177.308 245.582C178.502 246.328 179.783 247.685 181.327 247.129C187.355 245.36 193.697 245.885 199.9 245.812C205.188 245.862 210.598 245.521 215.74 247.029C217.993 247.895 219.849 245.831 221.465 244.591ZM164.695 246.853C165.285 250.168 166.053 253.569 167.96 256.408C169.105 253.73 171.37 251.869 173.843 250.476C168.709 246.819 167.014 240.416 164.439 235C163.821 238.937 164.124 242.947 164.695 246.853ZM233.455 234.894C231.075 240.484 228.93 246.719 223.834 250.476C226.411 251.871 228.692 253.893 229.787 256.677C233.274 250.066 234.693 242.278 233.455 234.894ZM183.123 264.662C183.556 265.707 184.108 266.718 184.329 267.828C184.329 269.237 183.073 270.298 181.824 270.707C178.43 271.876 174.746 272.423 171.739 274.507C168.65 276.429 166.424 279.409 164.661 282.537C166.774 281.259 169.206 280.604 171.675 280.647C170.723 282.499 169.829 284.464 169.913 286.596C169.951 292.732 172.293 298.582 175.094 303.938C176.864 300.426 177.057 296.448 177.4 292.605C178.002 297.171 179.245 301.613 180.213 306.109C181.809 311.989 183.28 318.061 186.655 323.212C187.662 324.902 189.276 326.057 190.971 326.98C191.685 327.318 192.46 327.514 193.249 327.555C194.768 326.985 196.3 326.437 197.825 325.881C197.929 324.958 198.035 324.047 198.139 323.129C196.526 322.776 194.856 322.534 193.353 321.815C191.48 320.926 190.806 318.364 191.794 316.584C193.492 315.962 195.354 316.27 197.123 316.208C199.88 316.326 202.654 316.032 205.401 316.353C206.86 317.832 206.197 320.485 204.573 321.573C203.025 322.477 201.212 322.76 199.493 323.174C199.529 323.853 199.597 325.384 199.63 325.904C199.857 325.98 202.493 327.138 203.715 327.785C206.612 327.455 209.313 325.874 210.639 323.224C216 313.891 217.88 303.115 220.254 292.754C220.453 296.531 220.759 300.444 222.438 303.892C224.649 300.062 226.231 295.903 227.124 291.572C228.029 287.915 227.936 283.905 225.864 280.642C228.495 280.554 231.068 281.255 233.12 282.928C230.765 278.206 226.785 274.12 221.671 272.5C219.134 271.539 216.24 271.347 214.015 269.701C212.502 268.249 213.823 266.2 214.371 264.63C206.236 270.375 200.135 279.33 198.841 289.308C197.343 279.36 191.319 270.39 183.123 264.662Z" fill="white"/>
</g>
<g filter="url(#filter2_d_1714_2)">
<path d="M147.178 245.948C152.55 250.356 157.834 254.876 163.211 259.291C163.237 259.312 163.258 259.339 163.273 259.369C163.288 259.4 163.295 259.433 163.295 259.467C163.295 259.501 163.288 259.535 163.273 259.565C163.258 259.596 163.237 259.622 163.211 259.644C162.041 260.548 160.88 261.482 159.665 262.33C159.623 262.361 159.572 262.376 159.521 262.373C159.469 262.371 159.42 262.351 159.382 262.317C155.682 259.241 152.659 255.473 149.495 251.875C149.466 251.838 149.426 251.81 149.38 251.797C149.334 251.783 149.285 251.785 149.241 251.801C149.196 251.817 149.157 251.847 149.13 251.886C149.103 251.926 149.089 251.972 149.09 252.02C148.941 257.249 150.027 262.443 151.985 267.283C151.996 267.315 152.014 267.343 152.038 267.367C152.062 267.391 152.092 267.409 152.123 267.42C152.155 267.431 152.189 267.435 152.223 267.431C152.256 267.428 152.289 267.416 152.317 267.398C154.632 266.066 156.56 264.038 159.015 263.031C158.746 263.726 158.087 264.162 157.601 264.705C151.528 270.286 144.755 275.029 138.625 280.535C136.158 282.844 133.088 284.981 132.187 288.421C131.474 290.726 131.508 293.171 131.282 295.545V295.57C130.938 297.564 129.698 299.249 128.671 300.936C124.665 306.748 121.062 312.826 117.886 319.128C117.862 319.177 117.856 319.233 117.87 319.285C117.883 319.338 117.916 319.384 117.961 319.415C121.013 321.466 124.245 324.097 128.191 323.325C131.739 322.536 133.785 319.212 136.242 316.842C138.79 314.261 141.22 311.274 144.682 309.921C145.737 309.53 148.357 309.727 147.312 311.43C145.997 313.384 143.465 313.644 141.472 314.578C137.625 316.068 135.486 319.879 132.092 322.041C130.712 323.115 129.042 323.642 127.408 324.185C127.356 324.203 127.312 324.24 127.284 324.288C127.255 324.336 127.245 324.392 127.254 324.447C127.426 325.632 129.743 325.198 130.451 324.929L130.474 324.917C136.688 321.991 141.336 316.274 148.047 314.261H148.07C152.261 313.264 156.621 313.639 160.862 314.153C166.575 315.03 172.343 316.371 177.48 319.11L177.509 319.128C179.772 320.772 182.329 323.058 182.261 326.075C182.259 326.113 182.248 326.15 182.228 326.182C182.208 326.215 182.18 326.242 182.147 326.261C182.113 326.279 182.076 326.289 182.038 326.29C182 326.29 181.962 326.281 181.929 326.263C177.491 324.002 172.497 323.115 167.542 323.466C169.605 322.131 171.497 321.871 173.346 321.871C168.549 319.157 162.375 319.452 158.047 320.675C164.641 316.864 170.108 317.595 171.542 317.579C166.949 315.924 158.303 315.17 151.923 315.849C146.375 316.699 141.944 320.482 137.374 323.448C134.445 325.308 131.296 328.181 127.548 327.066C123.898 325.768 120.647 323.644 117.28 321.767C117.252 321.752 117.222 321.743 117.191 321.74C117.16 321.738 117.128 321.741 117.099 321.751C114.275 322.706 110.944 322.387 108.518 320.629C107.386 319.863 107.839 318.205 108.66 317.366C113.105 312.257 117.868 307.431 122.52 302.511C124.331 300.382 126.759 298.268 126.743 295.235C126.831 291.658 126.792 287.492 129.748 284.936C136.219 278.876 143.517 273.774 150.702 268.613C150.744 268.582 150.774 268.538 150.787 268.488C150.8 268.437 150.795 268.384 150.774 268.337C147.586 261.41 146.886 253.655 146.807 246.115C146.808 246.073 146.822 246.032 146.845 245.996C146.869 245.961 146.902 245.933 146.94 245.916C146.979 245.898 147.022 245.892 147.064 245.898C147.106 245.903 147.146 245.921 147.178 245.948Z" fill="white"/>
</g>
<g filter="url(#filter3_d_1714_2)">
<path d="M234.558 259.395C240.136 254.974 245.374 250.147 251.009 245.805C251.024 245.795 251.041 245.788 251.059 245.786C251.077 245.785 251.096 245.788 251.112 245.797C251.129 245.805 251.142 245.817 251.152 245.833C251.162 245.848 251.167 245.866 251.167 245.885C250.954 253.522 250.423 261.444 247.094 268.443C247.084 268.463 247.081 268.486 247.087 268.508C247.092 268.53 247.105 268.55 247.123 268.563C252.977 272.729 258.849 276.878 264.339 281.517C267.03 283.778 270.374 286.105 270.759 289.911C271.494 292.967 270.356 296.594 272.569 299.183C276.796 304.512 281.98 308.974 286.39 314.143C287.73 315.763 289.224 318.017 289.239 318.04C290.554 320.044 288.312 321.079 288.291 321.086C285.54 322.176 283.802 322.4 280.358 321.67C280.343 321.666 280.328 321.665 280.313 321.668C280.299 321.67 280.285 321.675 280.272 321.683C277.149 323.945 273.748 325.996 270.044 327.14C267.555 327.914 265.212 326.559 263.185 325.272C258.61 322.285 254.26 318.678 249.156 316.636C247.71 316.068 246.181 315.745 244.63 315.679C241.059 315.507 229.836 316.514 227.84 317.398C235.101 317.789 239.907 321.086 239.853 321.075C229.498 319.148 223.769 320.849 223.187 321.457C228.749 321.075 231.456 324.105 231.428 324.092C229.268 322.898 221.587 322.696 215.007 327.364C214.991 327.364 214.969 327.364 214.975 327.344C216.087 323.205 219.049 319.61 223.033 317.943C232.6 314.076 248.275 313.94 251.024 315.043C256.999 317.5 261.694 322.032 267.403 324.974C267.893 325.226 268.437 325.356 268.989 325.353C269.541 325.35 270.083 325.215 270.571 324.958C271.25 324.537 271.386 324.053 270.754 324.042C264.192 323.429 261.436 316.054 255.442 314.189C253.837 313.564 251.751 312.979 250.737 311.525C250.625 311.361 250.559 311.17 250.546 310.972C250.533 310.774 250.573 310.576 250.661 310.398C250.75 310.221 250.885 310.071 251.051 309.962C251.218 309.854 251.41 309.792 251.609 309.783C252.508 309.748 253.401 309.95 254.197 310.369C259.175 312.936 261.814 317.778 266.036 321.263C266.981 322.057 268.081 322.645 269.266 322.989C270.452 323.334 271.697 323.427 272.92 323.262C273.558 323.177 274.177 322.989 274.755 322.706C276.64 321.801 278.296 320.487 280.036 319.341C280.057 319.327 280.072 319.307 280.078 319.284C280.084 319.26 280.081 319.235 280.07 319.214C277.603 314.319 274.889 309.552 271.938 304.932C270.109 302.139 267.912 299.505 266.84 296.296V296.28C266.267 293.455 266.552 290.477 265.525 287.733C264.934 285.884 263.52 284.497 262.165 283.177C256.922 278.267 251.278 273.81 245.664 269.336C243.446 267.369 240.912 265.618 239.091 263.282C239.077 263.264 239.07 263.242 239.071 263.219C239.072 263.196 239.08 263.174 239.095 263.157C239.109 263.14 239.129 263.128 239.151 263.123C239.174 263.118 239.197 263.121 239.217 263.131C241.509 264.32 243.516 266.071 245.68 267.505C245.692 267.513 245.706 267.518 245.721 267.52C245.736 267.522 245.751 267.52 245.765 267.516C245.779 267.511 245.792 267.503 245.802 267.493C245.813 267.483 245.821 267.471 245.827 267.457C247.955 262.464 248.981 257.07 248.834 251.645C248.834 251.625 248.827 251.605 248.816 251.589C248.804 251.573 248.787 251.56 248.769 251.554C248.75 251.547 248.729 251.546 248.71 251.551C248.691 251.556 248.673 251.566 248.66 251.581C245.386 255.306 242.2 259.239 238.409 262.391C238.392 262.404 238.372 262.41 238.351 262.41C238.329 262.41 238.309 262.404 238.292 262.391C236.977 261.552 235.848 260.437 234.56 259.551C234.547 259.542 234.537 259.531 234.53 259.517C234.523 259.504 234.519 259.489 234.518 259.473C234.518 259.458 234.521 259.443 234.529 259.429C234.535 259.415 234.545 259.404 234.558 259.395Z" fill="white"/>
</g>
<g filter="url(#filter4_d_1714_2)">
<path d="M178.598 281.395C181.257 282.638 184.07 283.5 186.816 284.522C190.098 285.909 192.453 288.95 193.657 292.236C192.171 290.478 190.37 289.012 188.346 287.912C188.213 287.983 188.082 288.059 187.955 288.139C187.199 288.651 186.309 288.931 185.396 288.946C184.079 288.971 182.755 288.72 181.694 287.874C179.847 286.202 179.306 283.67 178.598 281.395ZM183.296 284.097C183.281 284.706 183.346 285.314 183.488 285.906C183.507 285.994 183.548 286.076 183.606 286.146C183.663 286.215 183.737 286.269 183.82 286.303C183.904 286.338 183.994 286.352 184.084 286.344C184.174 286.337 184.26 286.307 184.337 286.259C184.678 286.033 185.015 285.807 185.335 285.567C185.454 284.312 184.115 284.394 183.296 284.097Z" fill="white"/>
</g>
<g filter="url(#filter5_d_1714_2)">
<path d="M215.833 288.144C214.771 288.983 213.448 289.243 212.129 289.218C211.216 289.202 210.328 288.922 209.572 288.41C209.443 288.329 209.314 288.255 209.18 288.184C207.155 289.283 205.354 290.75 203.869 292.51C205.073 289.225 207.426 286.178 210.71 284.794C213.457 283.772 216.27 282.91 218.926 281.669C218.22 283.942 217.679 286.481 215.833 288.144ZM212.19 285.83C212.511 286.079 212.848 286.305 213.19 286.525C213.266 286.573 213.353 286.602 213.443 286.609C213.533 286.617 213.623 286.603 213.707 286.568C213.79 286.533 213.864 286.479 213.921 286.409C213.979 286.34 214.019 286.258 214.038 286.169C214.181 285.577 214.246 284.969 214.231 284.36C213.411 284.67 212.07 284.582 212.19 285.83Z" fill="white"/>
</g>
<g filter="url(#filter6_d_1714_2)">
<path d="M135.704 291.784C138.262 289.909 140.935 288.196 143.707 286.655C141.938 288.781 140.01 290.859 138.937 293.44C138.301 294.826 138.089 296.649 137.175 297.671C136.251 298.824 135.113 299.774 134.102 300.837C133.925 298.7 133.389 296.579 133.522 294.426C133.688 293.214 134.814 292.485 135.704 291.784ZM134.416 294.396C133.832 294.901 134.373 296.52 135.401 296.097C136.269 295.532 135.378 293.937 134.416 294.396Z" fill="white"/>
</g>
<g filter="url(#filter7_d_1714_2)">
<path d="M254.179 286.511C257.115 288.189 259.952 290.032 262.678 292.033C263.651 292.712 264.597 293.707 264.558 294.973C264.497 296.927 264.027 298.845 263.939 300.806C262.558 299.259 260.639 298.049 260.053 295.95C258.926 292.363 256.7 289.265 254.179 286.511ZM262.58 296.224C263.63 296.423 263.712 295.609 263.803 294.833C263.814 294.733 263.802 294.633 263.769 294.538C263.736 294.444 263.682 294.358 263.611 294.287C263.54 294.217 263.454 294.163 263.36 294.13C263.265 294.098 263.164 294.086 263.065 294.098C261.965 294.247 261.099 295.735 262.58 296.224Z" fill="white"/>
</g>
<g filter="url(#filter8_d_1714_2)">
<path d="M191.921 296.495C194.084 297.999 195.057 300.267 194.831 302.45C194.505 305.695 194.204 308.945 193.767 312.174C193.826 306.925 193.342 301.649 191.921 296.495Z" fill="white"/>
</g>
<g filter="url(#filter9_d_1714_2)">
<path d="M203.69 302.26C203.451 300.043 204.193 297.655 206.501 296.153C204.958 301.305 205.112 306.615 204.917 311.86C204.713 308.635 204.01 305.455 203.69 302.26Z" fill="white"/>
</g>
</g>
<g opacity="0.3">
<path d="M309.493 215.526L287.228 214.874H115.048C129.357 229.108 149.816 236.723 169.91 238.476C190.005 240.23 210.207 237.172 230.088 233.728C249.968 230.285 269.935 226.435 290.115 226.584C294.393 226.584 298.788 226.798 302.745 225.215C306.702 223.633 310.081 219.804 309.493 215.526Z" fill="black"/>
</g>
<path d="M229.254 14.8359C223.697 14.9201 218.309 16.7604 213.862 20.0934C209.415 23.4263 206.137 28.0809 204.496 33.3907C202.935 38.8769 203.245 44.716 202.24 50.3412C201.234 55.9664 198.4 61.8483 193.064 63.8803C189.588 65.1957 185.578 64.6503 182.156 66.0191C180.546 66.6643 179.124 67.7031 178.02 69.0403C176.916 70.3776 176.165 71.9705 175.836 73.6732C175.507 75.3759 175.611 77.1339 176.138 78.7862C176.664 80.4384 177.597 81.932 178.851 83.1301C176.737 84.9515 175.32 87.4495 174.841 90.1985C174.362 92.9475 174.851 95.7776 176.224 98.2066C177.598 100.636 179.771 102.513 182.373 103.52C184.976 104.527 187.847 104.6 190.497 103.727C188.519 106.936 189.171 111.214 191.492 114.144C193.963 116.984 197.449 118.743 201.202 119.042C204.918 119.32 208.654 118.984 212.26 118.047C220.367 116.251 228.494 113.363 234.59 107.727C241.274 101.546 244.814 92.7551 247.498 84.0178C252.61 67.388 255.337 49.475 251.156 32.5886" fill="#263238"/>
<path d="M191.984 107.513L182.969 127.223L163.237 83.7399C162.307 80.2215 161.259 76.2539 161.045 75.4625C160.727 74.2456 160.615 72.9841 160.714 71.7302C160.779 70.1733 161.06 68.6329 161.548 67.153C162.136 65.8376 160.821 64.5008 159.687 65.1424C158.553 65.7841 156.853 69.4202 156.906 73.9867C156.96 78.5532 141.057 67.6449 138.48 70.2329L140.405 85.5259C142.148 87.1193 147.068 91.5147 149.805 93.9423L168.414 140.249C169.456 143.099 171.293 145.591 173.707 147.43C176.121 149.269 179.012 150.379 182.036 150.627C185.061 150.876 188.093 150.253 190.775 148.833C193.457 147.413 195.677 145.254 197.171 142.612L209.159 121.48L191.984 107.513Z" fill="#FFBE9D"/>
<path d="M150.179 56.1808C150.257 56.153 150.34 56.1419 150.422 56.1482C150.505 56.1545 150.585 56.1781 150.657 56.2175C150.73 56.2568 150.794 56.311 150.844 56.3766C150.894 56.4421 150.93 56.5175 150.949 56.5979L161.184 86.9806C161.28 87.246 161.284 87.5362 161.195 87.8042C161.106 88.0722 160.928 88.302 160.692 88.4564L148.543 95.2687C148.42 95.3327 148.284 95.3683 148.146 95.3731C148.007 95.3779 147.869 95.3516 147.742 95.2963C147.615 95.2409 147.502 95.1579 147.411 95.0532C147.32 94.9485 147.254 94.8248 147.217 94.6912L135.71 63.2391C135.595 62.9556 135.591 62.639 135.701 62.3532C135.81 62.0674 136.023 61.8336 136.298 61.6991L150.179 56.1808Z" fill="#263238"/>
<path d="M150.511 58.416L159.922 85.5155L147.891 91.9321L137.55 63.56L150.511 58.416Z" fill="#F5F5F5"/>
<path d="M139.849 65.3992C140.212 66.3296 140.811 67.8268 141.186 68.7572C141.229 68.8666 141.294 68.9662 141.376 69.05C141.459 69.1338 141.558 69.2002 141.666 69.2451C141.775 69.29 141.892 69.3125 142.01 69.3114C142.127 69.3102 142.243 69.2854 142.351 69.2384L148.768 66.5541L150.982 66.875L150.361 65.7093L151.089 65.4098C151.198 65.3665 151.298 65.3017 151.381 65.2191C151.465 65.1365 151.532 65.0379 151.576 64.9291C151.621 64.8203 151.644 64.7036 151.643 64.5859C151.642 64.4683 151.617 64.352 151.57 64.2442L150.265 61.1963C150.173 60.9844 150.002 60.8173 149.787 60.7312C149.573 60.6451 149.334 60.647 149.121 60.7364L140.373 64.2655C140.263 64.3036 140.161 64.3636 140.075 64.4418C139.988 64.5201 139.918 64.6149 139.869 64.7208C139.821 64.8266 139.794 64.9413 139.79 65.0579C139.786 65.1744 139.806 65.2905 139.849 65.3992Z" fill="white"/>
<path d="M145.271 81.4194L146.608 84.7668C146.651 84.8749 146.716 84.9733 146.797 85.0562C146.879 85.1391 146.977 85.2048 147.084 85.2497C147.192 85.2945 147.307 85.3174 147.424 85.3171C147.54 85.3168 147.655 85.2933 147.763 85.248L154.179 82.5637L156.393 82.8846L155.773 81.7189L156.5 81.4194C156.609 81.3761 156.709 81.3113 156.793 81.2287C156.877 81.1461 156.943 81.0475 156.988 80.9387C157.033 80.8299 157.055 80.7132 157.054 80.5955C157.053 80.4779 157.028 80.3616 156.981 80.2538L155.677 77.2166C155.633 77.1111 155.569 77.0152 155.489 76.9344C155.408 76.8537 155.313 76.7896 155.207 76.7459C155.102 76.7022 154.989 76.6797 154.875 76.6797C154.761 76.6797 154.648 76.7023 154.543 76.746L145.784 80.2751C145.675 80.3155 145.574 80.3773 145.489 80.457C145.403 80.5367 145.335 80.6327 145.287 80.7393C145.239 80.8459 145.213 80.961 145.21 81.0778C145.207 81.1946 145.228 81.3107 145.271 81.4194Z" fill="white"/>
<path d="M152.757 69.1846C153.163 70.0936 153.826 71.5801 154.211 72.4891C154.259 72.5963 154.284 72.712 154.286 72.8291C154.288 72.9463 154.266 73.0627 154.222 73.1713C154.178 73.28 154.113 73.3788 154.03 73.4618C153.948 73.5448 153.849 73.6105 153.741 73.6548L147.324 76.3284L146.009 78.1357L145.602 76.8631L144.886 77.184C144.778 77.2298 144.663 77.2539 144.546 77.2551C144.429 77.2562 144.314 77.2343 144.205 77.1906C144.097 77.1469 143.998 77.0822 143.915 77.0003C143.832 76.9185 143.766 76.8209 143.72 76.7134L142.458 73.6441C142.372 73.4297 142.373 73.1901 142.461 72.9765C142.549 72.7628 142.717 72.5918 142.929 72.4998L151.58 68.7354C151.687 68.6858 151.802 68.6581 151.92 68.6539C152.037 68.6497 152.154 68.6691 152.264 68.711C152.373 68.7529 152.474 68.8164 152.558 68.8978C152.643 68.9791 152.711 69.0766 152.757 69.1846Z" fill="white"/>
<path d="M138.48 70.9922C140.544 71.3344 143.079 71.5376 145.143 71.8798C145.738 71.9312 146.313 72.1217 146.822 72.4359C147.067 72.6027 147.248 72.8489 147.334 73.1332C147.419 73.4175 147.405 73.7226 147.292 73.9973C146.961 74.5962 146.148 74.639 145.463 74.6176C143.945 74.6176 142.255 74.8956 140.736 74.8422C142.683 75.0133 144.48 75.1737 146.65 75.4303C147.111 75.4751 147.543 75.6752 147.876 75.9978C148.208 76.3203 148.421 76.7462 148.479 77.2056C148.445 77.5942 148.276 77.9584 148 78.2342C147.724 78.51 147.36 78.6798 146.971 78.7135C146.174 78.7687 145.373 78.7687 144.576 78.7135C144.576 78.7135 141.442 78.7135 141.303 79.1627C143.26 79.1627 145.838 79.5691 147.795 79.7509C148.329 79.7509 148.565 80.5209 148.693 81.0449C148.771 81.3023 148.758 81.5785 148.657 81.8275C148.556 82.0766 148.372 82.2835 148.137 82.4138C147.889 82.4954 147.627 82.5245 147.367 82.4993C144.832 82.4245 143.517 82.5849 140.95 82.4993" fill="#FFBE9D"/>
<path d="M185.417 141.297C185.614 138.853 185.528 136.395 185.161 133.971C184.609 131.58 183.78 129.261 182.69 127.062C183.208 127.588 183.632 128.2 183.942 128.87C184.779 130.436 185.374 132.12 185.706 133.864C186.052 135.625 186.12 137.429 185.909 139.211C185.87 139.93 185.704 140.636 185.417 141.297Z" fill="#EB996E"/>
<path d="M148.265 80.072C146.789 80.1801 145.305 80.101 143.849 79.8367C142.64 79.7191 141.528 79.4731 140.79 79.4731C140.382 79.499 139.985 79.612 139.624 79.8047C139.624 79.8047 139.624 79.6549 139.817 79.4838C140.079 79.253 140.409 79.114 140.758 79.0881C141.813 79.0559 142.869 79.1204 143.913 79.2806C145.39 79.3663 146.852 79.632 148.265 80.072Z" fill="#EB996E"/>
<path d="M147.57 75.6338C146.108 75.7424 144.639 75.667 143.196 75.4092C141.998 75.2915 140.897 75.0349 140.18 75.0563C139.464 75.0777 139.111 75.4947 139.047 75.4306C138.983 75.3664 139.25 74.821 140.116 74.6713C140.592 74.607 141.074 74.607 141.549 74.6713L143.239 74.8531C144.71 74.9318 146.165 75.194 147.57 75.6338Z" fill="#EB996E"/>
<path d="M208.592 167.252C208.592 167.252 143.506 162.333 124.673 177.07C105.841 191.807 114.856 215.569 114.856 215.569H221.286L225.372 166.482L208.592 167.252Z" fill="#263238"/>
<path d="M220.837 201.057C220.519 201.065 220.2 201.043 219.885 200.993C219.265 200.918 218.345 200.833 217.18 200.672C214.827 200.373 211.426 199.892 207.245 199.186C196.358 197.313 185.589 194.814 174.99 191.7C168.798 189.86 162.917 188.032 157.495 186.652C152.703 185.413 147.804 184.636 142.865 184.331C139.535 184.147 136.195 184.341 132.908 184.909C131.732 185.059 130.855 185.347 130.245 185.454C129.936 185.536 129.622 185.597 129.304 185.636C129.599 185.516 129.903 185.419 130.213 185.347C131.085 185.083 131.97 184.866 132.865 184.695C136.163 184.038 139.527 183.783 142.886 183.936C147.856 184.187 152.789 184.932 157.612 186.16C163.066 187.476 168.959 189.368 175.151 191.154C185.727 194.259 196.457 196.811 207.298 198.801C211.458 199.549 214.848 200.095 217.18 200.458L219.875 200.876C220.516 200.982 220.837 201.047 220.837 201.057Z" fill="#455A64"/>
<path d="M159.409 186.395C157.582 184.865 155.625 183.498 153.559 182.31C151.407 181.283 149.166 180.452 146.864 179.829C147.585 179.778 148.309 179.854 149.003 180.053C150.686 180.419 152.311 181.009 153.837 181.807C155.359 182.609 156.769 183.609 158.029 184.78C158.577 185.237 159.043 185.783 159.409 186.395Z" fill="#455A64"/>
<path d="M255.701 161.124C255.701 161.124 196.165 162.739 177.332 177.476C158.5 192.213 167.515 215.975 167.515 215.975L279.164 217.665V203.281L264.684 201.72L264.577 201.057C270.192 194.908 265.914 173.476 256.567 162.172L255.701 161.124Z" fill="#263238"/>
<path d="M272.416 202.693C272.097 202.692 271.779 202.667 271.464 202.618C270.844 202.554 269.935 202.458 268.759 202.308C266.406 202.009 263.005 201.527 258.834 200.811C247.943 198.946 237.17 196.446 226.569 193.325C220.367 191.485 214.506 189.625 209.073 188.288C204.29 187.04 199.398 186.252 194.465 185.935C191.135 185.75 187.795 185.944 184.509 186.513C183.332 186.662 182.455 186.962 181.846 187.069C181.537 187.151 181.222 187.209 180.905 187.24C181.199 187.121 181.503 187.028 181.814 186.962C182.685 186.695 183.571 186.473 184.466 186.299C187.758 185.659 191.115 185.418 194.465 185.582C199.433 185.804 204.366 186.521 209.191 187.721C214.656 189.047 220.538 190.929 226.73 192.726C237.312 195.822 248.05 198.361 258.899 200.33C263.059 201.089 266.449 201.634 268.791 201.998L271.486 202.415C271.804 202.479 272.115 202.572 272.416 202.693Z" fill="#455A64"/>
<path d="M210.988 187.978C209.16 186.447 207.202 185.076 205.138 183.882C202.981 182.867 200.741 182.037 198.443 181.401C199.164 181.351 199.889 181.431 200.582 181.636C203.964 182.371 207.086 184.004 209.619 186.363C210.161 186.822 210.624 187.368 210.988 187.978Z" fill="#455A64"/>
<path d="M224.922 163.595C224.621 163.674 224.313 163.728 224.003 163.756L221.35 164.13C219.062 164.472 215.746 165.028 211.725 165.841C207.704 166.654 202.828 167.713 197.491 168.985C191.708 170.319 186.164 172.534 181.054 175.552C178.426 177.125 176.02 179.042 173.899 181.252C171.943 183.327 170.278 185.659 168.948 188.182C166.701 192.474 165.51 197.24 165.472 202.084C165.443 205.346 165.919 208.593 166.884 211.709C167.226 212.779 167.547 213.656 167.772 214.222C167.895 214.509 168.002 214.801 168.092 215.099C167.921 214.837 167.778 214.557 167.665 214.265C167.294 213.452 166.965 212.621 166.681 211.773C165.368 207.878 164.853 203.758 165.165 199.659C165.478 195.56 166.611 191.566 168.499 187.914C169.831 185.34 171.512 182.961 173.493 180.845C175.644 178.594 178.091 176.644 180.765 175.049C185.907 172.006 191.492 169.787 197.32 168.472C202.667 167.221 207.512 166.216 211.597 165.446C215.682 164.676 219.019 164.184 221.318 163.906C222.473 163.766 223.372 163.67 223.992 163.627C224.301 163.6 224.612 163.589 224.922 163.595Z" fill="#455A64"/>
<path d="M279.164 203.998L289.345 203.356L296.093 207.281L309.023 208.693C315.215 209.014 316.199 215.676 312.392 215.676C309.365 215.676 291.26 216.853 291.26 216.853L279.164 217.174V203.998Z" fill="white"/>
<path d="M295.708 207.303C295.266 207.686 294.725 207.938 294.147 208.03C292.763 208.377 291.305 208.286 289.974 207.771C288.643 207.256 287.504 206.342 286.714 205.153C286.346 204.7 286.116 204.151 286.051 203.57C286.126 203.57 286.393 204.126 287.035 204.928C287.856 205.969 288.941 206.77 290.177 207.248C291.413 207.725 292.754 207.863 294.061 207.645C295.077 207.484 295.676 207.217 295.708 207.303Z" fill="#455A64"/>
<path d="M311.868 215.527C311.868 215.591 311.354 215.719 310.627 215.345C310.184 215.069 309.803 214.704 309.508 214.274C309.214 213.843 309.012 213.356 308.916 212.843C308.612 211.844 308.707 210.767 309.183 209.837C309.59 209.132 310.082 208.928 310.114 208.993C310.146 209.057 309.804 209.356 309.536 210.062C309.214 210.931 309.187 211.882 309.461 212.768C309.626 213.671 310.112 214.484 310.83 215.056C311.397 215.441 311.878 215.463 311.868 215.527Z" fill="#455A64"/>
<path d="M211.576 80.1038C211.576 80.1038 198.882 108.005 199.63 112.743C200.379 117.481 204.09 136.388 204.09 136.388L206.774 167.145C206.774 167.145 254.717 161.338 255.711 161.338C256.706 161.338 254.214 135.896 254.214 135.896L261.519 87.0016C261.519 87.0016 258.171 80.339 243.071 78.0291C234.034 76.6281 211.576 80.1038 211.576 80.1038Z" fill="#42AB65"/>
<path d="M246.621 117.706C247.233 122.68 248.767 127.496 251.145 131.908C252.065 133.565 252.92 135.897 254.439 137.03C256.813 138.816 260.225 137.137 262.374 135.095C264.524 133.052 266.705 130.464 269.668 130.357C271.561 130.293 273.314 131.277 275.165 131.672C277.015 132.068 279.442 131.459 279.838 129.619C279.957 128.533 279.701 127.438 279.111 126.518C274.574 117.504 271.1 107.993 268.759 98.1777C267.771 95.3899 266.511 92.7068 264.994 90.1676C263.925 88.3603 261.166 85.7401 258.449 83.5371" fill="#42AB65"/>
<path d="M220.623 78.2539C207.426 78.7138 197.534 87.4404 194.721 93.7286C191.417 101.108 188.85 110.027 184.979 117.128C184.11 118.45 183.436 119.891 182.979 121.406C182.765 122.173 182.79 122.986 183.05 123.739C183.31 124.492 183.792 125.147 184.433 125.619C186.423 126.796 189.31 125.266 191.139 126.689C192.144 127.459 192.444 128.828 193.278 129.79C194.347 130.934 196.026 131.17 197.555 131.341L206.464 132.303" fill="#42AB65"/>
<path d="M243.659 105.482C243.443 105.149 243.271 104.789 243.146 104.413C242.764 103.409 242.498 102.365 242.354 101.3C241.831 97.7408 242.553 94.1096 244.398 91.021C246.244 87.9324 249.099 85.5758 252.482 84.3499C253.487 83.9765 254.531 83.7182 255.594 83.5799C255.984 83.5189 256.381 83.5189 256.77 83.5799C255.359 83.8739 253.972 84.2743 252.621 84.7777C249.38 86.0519 246.652 88.365 244.866 91.3548C243.08 94.3447 242.336 97.8424 242.75 101.3C242.954 102.714 243.258 104.111 243.659 105.482Z" fill="#263238"/>
<path d="M207.416 94.5518C207.231 95.0351 207.002 95.5005 206.731 95.942C206.485 96.3805 206.197 96.9152 205.908 97.5569C205.619 98.1985 205.234 98.9044 204.903 99.6957C204.08 101.605 203.383 103.566 202.817 105.567C202.138 108.021 201.649 110.524 201.352 113.053C201.086 115.582 201.008 118.127 201.117 120.667C201.221 122.741 201.46 124.806 201.833 126.849C201.972 127.726 202.176 128.496 202.325 129.191C202.475 129.886 202.635 130.463 202.774 130.945C202.932 131.437 203.05 131.941 203.127 132.453C202.891 131.991 202.701 131.508 202.561 131.009C202.352 130.437 202.174 129.856 202.026 129.266C201.844 128.581 201.609 127.801 201.448 126.924C201.016 124.869 200.733 122.785 200.603 120.689C200.282 115.544 200.865 110.382 202.325 105.439C202.92 103.425 203.663 101.459 204.55 99.5567C204.87 98.8261 205.227 98.1122 205.619 97.4178C205.893 96.8742 206.197 96.3458 206.528 95.8351C206.784 95.3807 207.081 94.9511 207.416 94.5518Z" fill="#263238"/>
<path d="M279.057 125.843C279.057 125.843 279.057 125.961 278.95 126.154C278.798 126.434 278.591 126.682 278.341 126.881C277.364 127.563 276.158 127.836 274.983 127.64C273.485 127.469 271.935 126.571 270.127 126.25C269.14 126.124 268.138 126.217 267.191 126.524C266.244 126.831 265.377 127.344 264.652 128.025C262.973 129.373 261.604 131.009 259.989 132.11C259.24 132.665 258.39 133.068 257.487 133.297C256.695 133.455 255.886 133.506 255.08 133.447C253.917 133.396 252.784 133.054 251.787 132.453C251.521 132.274 251.287 132.053 251.091 131.8C250.977 131.615 250.924 131.519 250.931 131.511C251.234 131.788 251.559 132.038 251.904 132.26C252.898 132.769 253.996 133.04 255.113 133.051C255.877 133.081 256.643 133.013 257.39 132.848C258.23 132.613 259.017 132.221 259.711 131.693C261.23 130.624 262.567 128.988 264.32 127.587C265.172 126.891 266.134 126.342 267.165 125.961C268.151 125.616 269.211 125.542 270.234 125.747C272.159 126.164 273.667 127.052 275.047 127.244C276.146 127.472 277.29 127.281 278.255 126.71C278.563 126.461 278.833 126.169 279.057 125.843Z" fill="#FAFAFA"/>
<path d="M275.999 119.588C275.998 119.692 275.972 119.795 275.924 119.887C275.804 120.158 275.625 120.399 275.4 120.593C274.961 120.928 274.453 121.161 273.913 121.274C273.372 121.387 272.813 121.377 272.277 121.245C270.908 121.021 269.497 120.122 267.807 120.037C265.934 120.065 264.117 120.678 262.609 121.791C260.941 122.914 259.508 124.24 258.021 125.245C256.726 126.192 255.222 126.815 253.637 127.063C252.549 127.23 251.437 127.086 250.429 126.646C250.057 126.504 249.724 126.277 249.455 125.983C249.455 125.983 249.819 126.197 250.525 126.453C251.502 126.785 252.548 126.858 253.562 126.667C255.072 126.387 256.494 125.753 257.711 124.817C259.144 123.823 260.556 122.486 262.278 121.331C263.879 120.151 265.818 119.517 267.807 119.523C268.665 119.603 269.506 119.816 270.299 120.154C270.958 120.44 271.637 120.676 272.331 120.86C272.819 120.999 273.331 121.032 273.833 120.956C274.334 120.881 274.814 120.699 275.239 120.422C275.534 120.184 275.79 119.903 275.999 119.588Z" fill="#FAFAFA"/>
<path d="M201.074 127.715C201.074 127.715 200.882 128.004 200.304 128.132C199.9 128.195 199.488 128.173 199.094 128.066C198.699 127.959 198.332 127.77 198.015 127.512C197.152 126.713 196.473 125.735 196.026 124.646C195.794 124.024 195.432 123.459 194.963 122.988C194.495 122.518 193.931 122.153 193.31 121.919C191.959 121.705 190.578 121.777 189.257 122.133C188.1 122.414 186.886 122.359 185.76 121.972C185.38 121.824 185.034 121.601 184.741 121.316C184.449 121.031 184.217 120.691 184.059 120.315C183.856 119.769 183.963 119.438 183.984 119.448C184.006 119.459 183.984 119.759 184.252 120.229C184.618 120.871 185.202 121.361 185.899 121.609C186.969 121.905 188.101 121.905 189.171 121.609C190.562 121.212 192.023 121.132 193.449 121.373C194.209 121.577 194.887 122.015 195.385 122.625C195.81 123.172 196.169 123.768 196.454 124.4C196.856 125.442 197.459 126.394 198.229 127.202C198.783 127.688 199.504 127.941 200.24 127.908C200.522 127.864 200.801 127.799 201.074 127.715Z" fill="#FAFAFA"/>
<path d="M199.459 121.417C199.459 121.417 199.224 121.545 198.817 121.417C198.256 121.201 197.785 120.801 197.481 120.283C197.138 119.569 196.65 118.935 196.048 118.422C195.165 118.033 194.173 117.964 193.246 118.23C192.216 118.449 191.152 118.449 190.123 118.23C189.279 118.033 188.482 117.669 187.781 117.16C187.102 116.753 186.559 116.154 186.219 115.438C186.305 115.374 186.818 116.112 188.005 116.839C189.556 117.772 191.406 118.071 193.171 117.674C194.221 117.386 195.341 117.496 196.315 117.984C196.984 118.564 197.501 119.298 197.823 120.123C198.063 120.596 198.434 120.989 198.892 121.256C199.224 121.417 199.459 121.417 199.459 121.417Z" fill="#FAFAFA"/>
<path d="M249.712 126.945C249.712 126.945 249.038 126.806 247.83 126.528C246.621 126.25 244.868 125.833 242.686 125.459C241.616 125.266 240.397 125.063 239.114 124.903C237.754 124.708 236.378 124.654 235.007 124.742C233.508 124.947 232.059 125.421 230.73 126.143C229.318 126.849 227.896 127.705 226.356 128.464C224.859 129.249 223.218 129.722 221.532 129.854C219.968 129.917 218.404 129.744 216.891 129.341C214.416 128.572 211.894 127.961 209.341 127.512C207.62 127.253 205.861 127.418 204.218 127.993C203.64 128.256 203.076 128.548 202.529 128.87C202.529 128.87 202.636 128.742 202.892 128.528C203.279 128.24 203.695 127.992 204.133 127.79C205.794 127.124 207.597 126.892 209.373 127.116C211.956 127.511 214.508 128.089 217.009 128.849C218.476 129.219 219.988 129.377 221.5 129.319C223.111 129.175 224.678 128.713 226.11 127.961C227.618 127.223 229.04 126.368 230.484 125.651C231.873 124.914 233.384 124.433 234.943 124.229C236.351 124.151 237.764 124.222 239.157 124.443C240.461 124.625 241.659 124.849 242.75 125.074C244.889 125.534 246.675 126.004 247.873 126.346C248.472 126.528 248.942 126.667 249.242 126.785C249.541 126.902 249.723 126.924 249.712 126.945Z" fill="#FAFAFA"/>
<path d="M250.813 132.314C250.813 132.314 250.172 132.057 249.038 131.576C247.905 131.094 246.236 130.431 244.14 129.79C243.002 129.428 241.836 129.163 240.654 128.998C239.305 128.883 237.948 129.061 236.676 129.522C233.948 130.453 231.328 132.453 228.12 133.715C226.547 134.315 224.873 134.605 223.19 134.57C221.646 134.537 220.107 134.373 218.591 134.078C216.077 133.504 213.525 133.108 210.956 132.891C209.229 132.782 207.498 133.003 205.854 133.543C204.699 133.96 204.133 134.356 204.1 134.313C204.068 134.271 204.229 134.185 204.496 134.003C204.9 133.746 205.326 133.524 205.769 133.34C207.424 132.703 209.195 132.419 210.966 132.506C213.56 132.661 216.138 133.019 218.677 133.575C221.522 134.057 224.815 134.442 227.917 133.201C231.018 131.961 233.628 129.993 236.472 129.041C237.816 128.57 239.249 128.406 240.665 128.56C241.872 128.734 243.061 129.021 244.215 129.415C245.876 129.974 247.501 130.635 249.081 131.394C249.637 131.661 250.065 131.886 250.343 132.046C250.51 132.115 250.669 132.205 250.813 132.314Z" fill="#FAFAFA"/>
<path d="M236.526 130.399C236.526 130.399 236.258 130.485 235.756 130.528C235.043 130.586 234.326 130.568 233.617 130.474C232.558 130.349 231.517 130.101 230.516 129.736C229.293 129.283 228.129 128.683 227.051 127.95C225.984 127.191 225.011 126.308 224.152 125.32C223.461 124.509 222.868 123.619 222.388 122.667C222.049 122.035 221.781 121.368 221.586 120.678C221.457 120.197 221.393 119.919 221.436 119.908C221.479 119.898 221.842 120.978 222.73 122.486C223.25 123.377 223.855 124.215 224.537 124.988C225.393 125.918 226.343 126.757 227.371 127.491C228.412 128.201 229.528 128.796 230.697 129.266C231.663 129.637 232.662 129.913 233.681 130.089C235.414 130.378 236.526 130.293 236.526 130.399Z" fill="#263238"/>
<g opacity="0.3">
<path d="M221.468 121.063C222.195 125.042 223.714 129.009 226.612 131.833C229.51 134.656 233.991 136.11 237.756 134.603C238.167 134.49 238.545 134.279 238.858 133.988C239.171 133.698 239.409 133.336 239.552 132.934C239.6 132.445 239.482 131.954 239.219 131.54C238.955 131.125 238.561 130.81 238.098 130.646C237.157 130.352 236.174 130.218 235.189 130.25C232.383 130.062 229.672 129.161 227.312 127.632C224.952 126.103 223.021 123.997 221.703 121.513" fill="black"/>
</g>
<path d="M252.824 136.933C252.618 136.602 252.463 136.241 252.364 135.864C252.097 135.19 251.733 134.206 251.295 132.987C250.439 130.538 249.338 127.148 248.225 123.362C247.113 119.576 246.226 116.111 245.627 113.598C245.327 112.336 245.103 111.32 244.964 110.604C244.869 110.255 244.815 109.896 244.803 109.534C244.977 109.871 245.103 110.231 245.178 110.604C245.413 111.416 245.691 112.39 246.012 113.545C246.696 116.036 247.659 119.469 248.76 123.255C249.862 127.041 250.899 130.442 251.669 132.88C252.011 134.024 252.311 135.019 252.557 135.81C252.687 136.173 252.777 136.55 252.824 136.933Z" fill="#263238"/>
<path d="M204.55 167.551C204.55 167.551 213.79 157.648 221.874 155.702C229.959 153.756 258.92 143.521 258.92 143.521L257.091 137.757C258.954 137.559 260.683 136.693 261.957 135.319L263.828 133.458C266.374 130.677 269.443 129.18 273.892 130.688L276.694 131.522L279.613 140.078C280.294 142.073 280.525 144.194 280.289 146.289C280.053 148.383 279.357 150.4 278.25 152.194C277.143 153.988 275.652 155.515 273.886 156.665C272.119 157.815 270.12 158.56 268.031 158.846L204.55 167.551Z" fill="#FFBE9D"/>
<path d="M270.929 144.752C269.013 144.113 267.045 143.64 265.048 143.34C263.043 143.219 261.032 143.276 259.037 143.511C260.981 142.818 263.056 142.569 265.108 142.784C267.161 142.999 269.139 143.671 270.897 144.752H270.929Z" fill="#EB996E"/>
<path d="M205.94 32.1822C205.159 18.7501 222.655 9.3177 234.601 12.6864C245.819 15.8947 250.642 21.4344 252.45 28.9419C254.257 36.4493 254.204 44.577 251.263 51.7315C249.808 55.25 247.199 58.8326 243.413 59.2176" fill="#263238"/>
<path d="M241.755 23.9374C242.703 24.0365 243.58 24.4886 244.21 25.2038C244.84 25.919 245.178 26.8451 245.156 27.798L243.017 79.2914C242.943 85.3765 234.056 88.8094 227.553 88.6703C220.976 88.5313 220.752 85.3123 220.656 79.5267C220.506 69.9017 220.506 66.2336 220.506 66.287C220.506 66.3405 212.175 64.9075 210.507 54.042C209.651 48.6948 209.918 39.8078 210.378 32.5891C210.785 26.0869 215.094 18.0983 221.575 18.7934L241.755 23.9374Z" fill="#FFBE9D"/>
<path d="M213.137 39.6366C213.137 39.9973 213.276 40.3443 213.525 40.6052C213.774 40.8662 214.114 41.0211 214.474 41.0376C214.651 41.0522 214.829 41.0311 214.997 40.9757C215.166 40.9202 215.321 40.8316 215.455 40.7149C215.589 40.5982 215.697 40.4559 215.775 40.2964C215.853 40.1369 215.898 39.9635 215.907 39.7864C215.913 39.423 215.776 39.0719 215.526 38.808C215.277 38.5442 214.933 38.3886 214.57 38.3747C214.393 38.3616 214.215 38.3841 214.046 38.4408C213.878 38.4974 213.722 38.5871 213.589 38.7046C213.455 38.8222 213.347 38.9651 213.269 39.1251C213.191 39.2852 213.147 39.4591 213.137 39.6366Z" fill="#263238"/>
<path d="M212.239 37.2086C212.41 37.3904 213.469 36.6204 214.955 36.6204C216.442 36.6204 217.554 37.369 217.715 37.1872C217.875 37.0054 217.618 36.7808 217.137 36.4279C216.49 35.9806 215.72 35.7451 214.934 35.7542C214.165 35.751 213.415 35.9947 212.795 36.4493C212.314 36.8022 212.153 37.1337 212.239 37.2086Z" fill="#263238"/>
<path d="M227.756 39.6367C227.756 39.9991 227.896 40.3476 228.148 40.6088C228.399 40.8701 228.742 41.0238 229.104 41.0376C229.28 41.0507 229.458 41.0286 229.626 40.9726C229.793 40.9166 229.949 40.8278 230.082 40.7114C230.215 40.595 230.324 40.4533 230.402 40.2945C230.48 40.1357 230.526 39.963 230.537 39.7864C230.54 39.4238 230.402 39.0742 230.153 38.8109C229.904 38.5477 229.562 38.3913 229.2 38.3747C229.022 38.3616 228.843 38.384 228.674 38.4406C228.505 38.4971 228.349 38.5866 228.215 38.704C228.08 38.8214 227.971 38.9643 227.892 39.1244C227.813 39.2845 227.767 39.4586 227.756 39.6367Z" fill="#263238"/>
<path d="M226.944 37.4974C227.115 37.6792 228.173 36.8985 229.66 36.8985C231.146 36.8985 232.259 37.6471 232.419 37.4653C232.58 37.2835 232.323 37.0589 231.842 36.706C231.193 36.2631 230.424 36.0281 229.639 36.0323C228.87 36.0292 228.12 36.2728 227.5 36.7274C227.018 37.0803 226.858 37.4118 226.944 37.4974Z" fill="#263238"/>
<path d="M221.511 48.5878C220.724 48.3395 219.908 48.1921 219.083 48.1493C218.698 48.1493 218.346 48.0317 218.281 47.775C218.243 47.3807 218.329 46.9842 218.527 46.6414L219.661 43.7326C221.233 39.5938 222.367 36.1823 222.195 36.1182C220.963 38.4974 219.915 40.968 219.062 43.508C218.688 44.5774 218.324 45.5078 217.993 46.4382C217.749 46.8973 217.68 47.4296 217.8 47.9354C217.852 48.0704 217.936 48.1911 218.044 48.2877C218.151 48.3844 218.281 48.4542 218.42 48.4915C218.634 48.5459 218.853 48.5782 219.073 48.5878C219.882 48.688 220.701 48.688 221.511 48.5878Z" fill="#263238"/>
<path d="M220.484 66.2874C225.587 66.3649 230.61 65.0247 234.996 62.416C234.996 62.416 231.478 69.9021 220.623 68.8326L220.484 66.2874Z" fill="#EB996E"/>
<path d="M222.142 52.1918C222.427 51.8334 222.798 51.5532 223.221 51.3774C223.643 51.2016 224.104 51.1359 224.559 51.1865C224.89 51.217 225.211 51.3142 225.503 51.4723C225.795 51.6304 226.053 51.846 226.259 52.1062C226.46 52.3536 226.579 52.6572 226.6 52.9751C226.621 53.2931 226.543 53.6098 226.377 53.8815C226.139 54.1518 225.825 54.3443 225.476 54.434C225.127 54.5236 224.759 54.5062 224.42 54.3841C223.712 54.1332 223.061 53.7443 222.505 53.2398C222.339 53.1184 222.195 52.9703 222.078 52.8013C222.025 52.718 221.998 52.6216 221.998 52.5233C221.998 52.425 222.025 52.3286 222.078 52.2452" fill="#EB996E"/>
<path d="M225.917 49.6252C225.671 49.6252 225.671 51.2294 224.281 52.3844C222.891 53.5393 221.158 53.3575 221.147 53.5821C221.137 53.8067 221.532 53.903 222.217 53.9243C223.171 53.934 224.098 53.6085 224.837 53.0046C225.542 52.4276 225.994 51.5993 226.099 50.6946C226.206 50.0102 226.024 49.6145 225.917 49.6252Z" fill="#263238"/>
<path d="M226.27 34.8776C226.42 35.284 227.906 35.0915 229.66 35.2947C231.414 35.4978 232.868 35.9898 233.071 35.6262C233.178 35.4551 232.932 35.0701 232.355 34.6744C231.593 34.1909 230.731 33.8876 229.834 33.7876C228.937 33.6875 228.029 33.7933 227.179 34.0969C226.548 34.3642 226.206 34.6851 226.27 34.8776Z" fill="#263238"/>
<path d="M212.784 32.888C213.052 33.2195 214.078 32.888 215.319 32.888C216.559 32.888 217.607 33.1126 217.853 32.7597C217.96 32.5886 217.789 32.2463 217.329 31.9255C216.719 31.5327 216.002 31.3385 215.276 31.3694C214.546 31.3755 213.838 31.6154 213.255 32.0538C212.816 32.364 212.645 32.7169 212.784 32.888Z" fill="#263238"/>
<path d="M226.922 15.2109C223.236 15.3897 219.654 16.493 216.506 18.4192C214.737 19.3253 213.165 20.5722 211.88 22.0883C210.596 23.6043 209.623 25.3595 209.02 27.2528C208.868 27.6439 208.798 28.0616 208.813 28.4807C208.827 28.8998 208.927 29.3116 209.105 29.6911C209.449 30.1274 209.934 30.4302 210.476 30.5474C211.019 30.6645 211.586 30.5886 212.078 30.3328C213.05 29.7947 213.879 29.032 214.495 28.1083C214.758 29.1094 215.348 29.9937 216.172 30.6209C216.995 31.2481 218.004 31.5821 219.039 31.5698C220.074 31.5575 221.075 31.1996 221.884 30.5531C222.692 29.9065 223.261 29.0084 223.5 28.0014C223.582 29.0404 224.061 30.008 224.838 30.703C225.614 31.3981 226.629 31.7672 227.671 31.7337C228.713 31.6445 229.706 31.2514 230.528 30.6032C231.349 29.955 231.962 29.0801 232.291 28.087C232.538 29.9844 233.187 31.8074 234.194 33.4341C234.709 34.2298 235.456 34.8482 236.334 35.2058C237.212 35.5635 238.178 35.6431 239.103 35.434C238.71 37.0282 238.735 38.6972 239.178 40.2785C239.745 41.8185 242.386 74.9924 243.948 74.5005C245.509 74.0085 245.081 40.2785 245.434 38.7171C246.201 35.7516 246.589 32.7008 246.589 29.6376C246.691 26.4877 245.672 23.4039 243.714 20.9345C241.756 18.4652 238.985 16.7706 235.895 16.152C232.804 15.4407 229.631 15.1494 226.462 15.2858" fill="#263238"/>
<path d="M189.193 58.1379C189.193 58.1379 189.075 57.9454 188.765 57.646C188.319 57.2052 187.747 56.9137 187.129 56.8118C186.65 56.7196 186.157 56.726 185.681 56.8309C185.204 56.9357 184.755 57.1366 184.359 57.4214C183.873 57.8399 183.503 58.3768 183.286 58.9801C183.068 59.5835 183.011 60.2327 183.118 60.865C183.215 61.6062 183.494 62.3117 183.931 62.9183C184.427 63.5582 185.073 64.0653 185.813 64.3941C186.638 64.7536 187.528 64.9391 188.428 64.9391C189.328 64.9391 190.218 64.7536 191.043 64.3941C192.886 63.5614 194.477 62.2552 195.652 60.6083C196.953 58.8569 197.954 56.9018 198.614 54.8227C200.026 50.5449 200.411 46.203 200.999 42.3103C201.438 38.8307 202.359 35.4293 203.737 32.2041C204.685 30.0191 206.093 28.0641 207.865 26.4719C208.358 26.0432 208.883 25.6534 209.437 25.3062C209.62 25.1804 209.818 25.0763 210.025 24.9961C210.025 24.9961 209.244 25.488 208.015 26.5896C206.324 28.2084 204.988 30.1602 204.09 32.3217C202.776 35.5288 201.905 38.9 201.502 42.3423C200.935 46.2244 200.571 50.5877 199.128 54.951C198.451 57.0895 197.421 59.0995 196.08 60.8971C194.835 62.6088 193.165 63.9655 191.235 64.8326C190.348 65.2195 189.39 65.4191 188.423 65.4191C187.455 65.4191 186.497 65.2195 185.61 64.8326C184.807 64.4603 184.109 63.8944 183.578 63.1857C183.104 62.5183 182.806 61.7422 182.712 60.9292C182.608 60.2342 182.688 59.5243 182.943 58.8696C183.198 58.2149 183.62 57.6383 184.166 57.1968C184.597 56.897 185.087 56.6907 185.602 56.5913C186.118 56.4918 186.649 56.5014 187.161 56.6193C187.808 56.7556 188.395 57.0924 188.84 57.5818C188.995 57.74 189.116 57.9296 189.193 58.1379Z" fill="#263238"/>
<path d="M246.685 75.9121C246.685 75.8479 247.316 75.5698 248.364 74.8426C249.821 73.7869 251.065 72.4663 252.032 70.9499C253.465 68.6988 254.401 66.1689 254.781 63.528C255.184 60.2763 255.043 56.9802 254.364 53.7747C253.701 50.3525 252.717 47.1549 251.872 44.2354C251.027 41.3158 250.3 38.6529 249.872 36.3857C249.523 34.594 249.315 32.7774 249.252 30.953C249.252 30.3113 249.252 29.8087 249.252 29.4664C249.241 29.2936 249.259 29.12 249.305 28.9531C249.359 28.9531 249.305 29.6696 249.444 30.9423C249.583 32.7403 249.844 34.5269 250.225 36.2895C250.706 38.5246 251.444 41.1554 252.364 44.0643C253.378 47.2264 254.228 50.439 254.909 53.6892C255.608 56.9506 255.735 60.3087 255.284 63.6135C254.876 66.3207 253.88 68.9053 252.364 71.1851C251.346 72.7195 250.025 74.0296 248.482 75.0351C248.065 75.3091 247.625 75.5453 247.167 75.7409C247.012 75.8124 246.851 75.8696 246.685 75.9121Z" fill="#263238"/>
<path d="M248.621 68.9502C248.505 69.0357 248.375 69.1008 248.236 69.1427C247.856 69.2807 247.461 69.3775 247.06 69.4314C245.546 69.5868 244.022 69.2692 242.697 68.5224C240.736 67.3937 239.25 65.5929 238.515 63.4533C237.633 60.87 237.344 58.1212 237.67 55.4111C237.927 52.545 238.451 49.8821 238.686 47.4331C238.921 44.9841 239.06 42.7704 239.103 40.9095C239.146 39.0487 239.103 37.5408 239.103 36.4928C239.057 35.9555 239.057 35.4152 239.103 34.8779C239.222 35.405 239.29 35.9421 239.306 36.4821C239.392 37.5515 239.478 39.038 239.488 40.9202C239.498 43.1127 239.398 45.3042 239.189 47.4866C238.975 49.957 238.472 52.6413 238.216 55.4646C237.897 58.0919 238.16 60.757 238.986 63.2714C239.665 65.318 241.048 67.0574 242.889 68.1802C244.135 68.9313 245.574 69.3029 247.028 69.2496C248.065 69.132 248.6 68.8967 248.621 68.9502Z" fill="#263238"/>
<path d="M178.669 78.7247C178.661 78.3608 178.719 77.9984 178.84 77.6552C179.176 76.7073 179.796 75.8858 180.616 75.3025C181.906 74.3614 183.447 73.8254 185.043 73.7625C186.882 73.5914 188.968 73.8587 191.224 73.7625C193.692 73.5404 196.071 72.7339 198.165 71.4097C200.557 69.868 202.604 67.847 204.175 65.4743C205.894 62.8392 207.102 59.9043 207.737 56.8226C208.417 53.5028 208.701 50.1139 208.581 46.7271C208.581 43.2408 208.1 39.8614 207.897 36.5461C207.584 33.3548 207.787 30.1339 208.496 27.0067C209.153 24.3416 210.552 21.917 212.53 20.0132C214.507 18.1094 216.983 16.8041 219.671 16.2482C221.73 15.8391 223.854 15.9012 225.885 16.43C227.404 16.8241 228.849 17.4634 230.163 18.3229C230.992 18.8608 231.759 19.4884 232.451 20.1944C232.697 20.4404 232.847 20.6436 232.964 20.7719C233.082 20.9003 233.136 20.9751 233.125 20.9858C232.188 20.0528 231.156 19.2212 230.045 18.5047C228.723 17.6886 227.279 17.0893 225.767 16.7295C223.778 16.2491 221.707 16.2162 219.703 16.6332C217.286 17.1618 215.049 18.3119 213.212 19.9698C211.091 21.872 209.598 24.3749 208.934 27.1458C208.259 30.2201 208.071 33.3814 208.378 36.514C208.603 39.7972 209.031 43.198 209.095 46.7164C209.202 50.1469 208.908 53.5782 208.218 56.9402C207.564 60.0869 206.32 63.0808 204.55 65.7631C202.93 68.1873 200.821 70.2456 198.358 71.8054C196.196 73.152 193.742 73.9589 191.203 74.1582C188.872 74.2865 186.808 73.9871 185.011 74.1582C183.48 74.2055 181.995 74.6918 180.733 75.5591C179.923 76.1015 179.296 76.8772 178.937 77.7836C178.712 78.361 178.712 78.7247 178.669 78.7247Z" fill="#455A64"/>
<path d="M232.28 12.9331C232.28 12.8796 232.804 13.1149 233.35 13.7673C234.095 14.6358 234.548 15.7173 234.644 16.8579C234.741 18.0001 234.479 19.1441 233.895 20.1304C233.435 20.8683 232.997 21.1998 232.954 21.1998C232.911 21.1998 233.211 20.7293 233.542 19.9914C233.994 19.0488 234.186 18.0023 234.098 16.9606C234.01 15.9188 233.644 14.9196 233.039 14.0667C232.612 13.3395 232.227 12.9973 232.28 12.9331Z" fill="#455A64"/>
<path d="M253.637 40.6628C253.503 40.2371 253.406 39.8006 253.348 39.3581C253.188 38.5025 252.963 37.2834 252.632 35.7755C252.3 34.2676 251.904 32.4709 251.37 30.5139C251.102 29.53 250.803 28.5033 250.428 27.466C250.075 26.4033 249.555 25.4034 248.888 24.5036C247.613 22.737 245.868 21.3627 243.851 20.536C242.203 19.874 240.399 19.6996 238.654 20.0334C237.469 20.2422 236.341 20.6937 235.339 21.3595C234.996 21.6382 234.639 21.8988 234.269 22.1402C234.269 22.1402 234.333 22.0332 234.483 21.8621C234.71 21.6135 234.961 21.3879 235.232 21.1884C236.221 20.4286 237.369 19.9022 238.59 19.6484C240.412 19.2413 242.313 19.3828 244.055 20.0548C246.175 20.8951 248.012 22.3236 249.348 24.1721C250.049 25.115 250.591 26.1663 250.952 27.2842C251.327 28.3536 251.616 29.423 251.883 30.3748C252.386 32.364 252.76 34.1713 253.027 35.722C253.295 37.2727 253.487 38.4812 253.573 39.3474C253.651 39.7812 253.673 40.2234 253.637 40.6628Z" fill="#455A64"/>
<path d="M233.392 21.5631C232.22 21.4338 231.07 21.1534 229.97 20.7289C228.778 20.3321 227.554 20.0352 226.313 19.8413C224.809 19.6231 223.274 19.7924 221.853 20.3332C220.433 20.8638 219.173 21.7514 218.196 22.9106C217.4 23.8489 216.807 24.941 216.452 26.1189C216.166 27.2377 216.011 28.3863 215.993 29.5411C215.87 29.2428 215.812 28.9222 215.822 28.6C215.769 27.7297 215.852 26.8566 216.067 26.0119C216.38 24.7391 216.972 23.5518 217.8 22.5363C218.818 21.2835 220.15 20.3238 221.661 19.7557C223.168 19.187 224.797 19.0211 226.388 19.2745C227.655 19.5143 228.898 19.8724 230.099 20.3439C232.13 21.1246 233.414 21.4882 233.392 21.5631Z" fill="#455A64"/>
</g>
</g>
<defs>
<filter id="filter0_b_1714_2" x="34.1746" y="8" width="438.066" height="351.976" filterUnits="userSpaceOnUse" color-interpolation-filters="sRGB">
<feFlood flood-opacity="0" result="BackgroundImageFix"/>
<feGaussianBlur in="BackgroundImageFix" stdDeviation="2"/>
<feComposite in2="SourceAlpha" operator="in" result="effect1_backgroundBlur_1714_2"/>
<feBlend mode="normal" in="SourceGraphic" in2="effect1_backgroundBlur_1714_2" result="shape"/>
</filter>
<filter id="filter1_d_1714_2" x="150.499" y="230.344" width="96.5939" height="102.341" filterUnits="userSpaceOnUse" color-interpolation-filters="sRGB">
<feFlood flood-opacity="0" result="BackgroundImageFix"/>
<feColorMatrix in="SourceAlpha" type="matrix" values="0 0 0 0 0 0 0 0 0 0 0 0 0 0 0 0 0 0 127 0" result="hardAlpha"/>
<feOffset dy="1"/>
<feGaussianBlur stdDeviation="0.15"/>
<feComposite in2="hardAlpha" operator="out"/>
<feColorMatrix type="matrix" values="0 0 0 0 0 0 0 0 0 0 0 0 0 0 0 0 0 0 0.25 0"/>
<feBlend mode="normal" in2="BackgroundImageFix" result="effect1_dropShadow_1714_2"/>
<feBlend mode="normal" in="SourceGraphic" in2="effect1_dropShadow_1714_2" result="shape"/>
</filter>
<filter id="filter2_d_1714_2" x="107.54" y="245.896" width="75.0221" height="82.7199" filterUnits="userSpaceOnUse" color-interpolation-filters="sRGB">
<feFlood flood-opacity="0" result="BackgroundImageFix"/>
<feColorMatrix in="SourceAlpha" type="matrix" values="0 0 0 0 0 0 0 0 0 0 0 0 0 0 0 0 0 0 127 0" result="hardAlpha"/>
<feOffset dy="1"/>
<feGaussianBlur stdDeviation="0.15"/>
<feComposite in2="hardAlpha" operator="out"/>
<feColorMatrix type="matrix" values="0 0 0 0 0 0 0 0 0 0 0 0 0 0 0 0 0 0 0.25 0"/>
<feBlend mode="normal" in2="BackgroundImageFix" result="effect1_dropShadow_1714_2"/>
<feBlend mode="normal" in="SourceGraphic" in2="effect1_dropShadow_1714_2" result="shape"/>
</filter>
<filter id="filter3_d_1714_2" x="214.674" y="245.786" width="75.2782" height="82.8811" filterUnits="userSpaceOnUse" color-interpolation-filters="sRGB">
<feFlood flood-opacity="0" result="BackgroundImageFix"/>
<feColorMatrix in="SourceAlpha" type="matrix" values="0 0 0 0 0 0 0 0 0 0 0 0 0 0 0 0 0 0 127 0" result="hardAlpha"/>
<feOffset dy="1"/>
<feGaussianBlur stdDeviation="0.15"/>
<feComposite in2="hardAlpha" operator="out"/>
<feColorMatrix type="matrix" values="0 0 0 0 0 0 0 0 0 0 0 0 0 0 0 0 0 0 0.25 0"/>
<feBlend mode="normal" in2="BackgroundImageFix" result="effect1_dropShadow_1714_2"/>
<feBlend mode="normal" in="SourceGraphic" in2="effect1_dropShadow_1714_2" result="shape"/>
</filter>
<filter id="filter4_d_1714_2" x="178.298" y="281.395" width="15.6588" height="12.1418" filterUnits="userSpaceOnUse" color-interpolation-filters="sRGB">
<feFlood flood-opacity="0" result="BackgroundImageFix"/>
<feColorMatrix in="SourceAlpha" type="matrix" values="0 0 0 0 0 0 0 0 0 0 0 0 0 0 0 0 0 0 127 0" result="hardAlpha"/>
<feOffset dy="1"/>
<feGaussianBlur stdDeviation="0.15"/>
<feComposite in2="hardAlpha" operator="out"/>
<feColorMatrix type="matrix" values="0 0 0 0 0 0 0 0 0 0 0 0 0 0 0 0 0 0 0.25 0"/>
<feBlend mode="normal" in2="BackgroundImageFix" result="effect1_dropShadow_1714_2"/>
<feBlend mode="normal" in="SourceGraphic" in2="effect1_dropShadow_1714_2" result="shape"/>
</filter>
<filter id="filter5_d_1714_2" x="203.569" y="281.669" width="15.6569" height="12.1418" filterUnits="userSpaceOnUse" color-interpolation-filters="sRGB">
<feFlood flood-opacity="0" result="BackgroundImageFix"/>
<feColorMatrix in="SourceAlpha" type="matrix" values="0 0 0 0 0 0 0 0 0 0 0 0 0 0 0 0 0 0 127 0" result="hardAlpha"/>
<feOffset dy="1"/>
<feGaussianBlur stdDeviation="0.15"/>
<feComposite in2="hardAlpha" operator="out"/>
<feColorMatrix type="matrix" values="0 0 0 0 0 0 0 0 0 0 0 0 0 0 0 0 0 0 0.25 0"/>
<feBlend mode="normal" in2="BackgroundImageFix" result="effect1_dropShadow_1714_2"/>
<feBlend mode="normal" in="SourceGraphic" in2="effect1_dropShadow_1714_2" result="shape"/>
</filter>
<filter id="filter6_d_1714_2" x="133.201" y="286.655" width="10.8061" height="15.4816" filterUnits="userSpaceOnUse" color-interpolation-filters="sRGB">
<feFlood flood-opacity="0" result="BackgroundImageFix"/>
<feColorMatrix in="SourceAlpha" type="matrix" values="0 0 0 0 0 0 0 0 0 0 0 0 0 0 0 0 0 0 127 0" result="hardAlpha"/>
<feOffset dy="1"/>
<feGaussianBlur stdDeviation="0.15"/>
<feComposite in2="hardAlpha" operator="out"/>
<feColorMatrix type="matrix" values="0 0 0 0 0 0 0 0 0 0 0 0 0 0 0 0 0 0 0.25 0"/>
<feBlend mode="normal" in2="BackgroundImageFix" result="effect1_dropShadow_1714_2"/>
<feBlend mode="normal" in="SourceGraphic" in2="effect1_dropShadow_1714_2" result="shape"/>
</filter>
<filter id="filter7_d_1714_2" x="254.179" y="286.511" width="10.3806" height="15.2949" filterUnits="userSpaceOnUse" color-interpolation-filters="sRGB">
<feFlood flood-opacity="0" result="BackgroundImageFix"/>
<feColorMatrix in="SourceAlpha" type="matrix" values="0 0 0 0 0 0 0 0 0 0 0 0 0 0 0 0 0 0 127 0" result="hardAlpha"/>
<feOffset dy="1"/>
<feComposite in2="hardAlpha" operator="out"/>
<feColorMatrix type="matrix" values="0 0 0 0 0 0 0 0 0 0 0 0 0 0 0 0 0 0 0.25 0"/>
<feBlend mode="normal" in2="BackgroundImageFix" result="effect1_dropShadow_1714_2"/>
<feBlend mode="normal" in="SourceGraphic" in2="effect1_dropShadow_1714_2" result="shape"/>
</filter>
<filter id="filter8_d_1714_2" x="191.621" y="296.495" width="3.54189" height="16.9787" filterUnits="userSpaceOnUse" color-interpolation-filters="sRGB">
<feFlood flood-opacity="0" result="BackgroundImageFix"/>
<feColorMatrix in="SourceAlpha" type="matrix" values="0 0 0 0 0 0 0 0 0 0 0 0 0 0 0 0 0 0 127 0" result="hardAlpha"/>
<feOffset dy="1"/>
<feGaussianBlur stdDeviation="0.15"/>
<feComposite in2="hardAlpha" operator="out"/>
<feColorMatrix type="matrix" values="0 0 0 0 0 0 0 0 0 0 0 0 0 0 0 0 0 0 0.25 0"/>
<feBlend mode="normal" in2="BackgroundImageFix" result="effect1_dropShadow_1714_2"/>
<feBlend mode="normal" in="SourceGraphic" in2="effect1_dropShadow_1714_2" result="shape"/>
</filter>
<filter id="filter9_d_1714_2" x="203.347" y="296.153" width="3.45352" height="17.0061" filterUnits="userSpaceOnUse" color-interpolation-filters="sRGB">
<feFlood flood-opacity="0" result="BackgroundImageFix"/>
<feColorMatrix in="SourceAlpha" type="matrix" values="0 0 0 0 0 0 0 0 0 0 0 0 0 0 0 0 0 0 127 0" result="hardAlpha"/>
<feOffset dy="1"/>
<feGaussianBlur stdDeviation="0.15"/>
<feComposite in2="hardAlpha" operator="out"/>
<feColorMatrix type="matrix" values="0 0 0 0 0 0 0 0 0 0 0 0 0 0 0 0 0 0 0.25 0"/>
<feBlend mode="normal" in2="BackgroundImageFix" result="effect1_dropShadow_1714_2"/>
<feBlend mode="normal" in="SourceGraphic" in2="effect1_dropShadow_1714_2" result="shape"/>
</filter>
<clipPath id="clip0_1714_2">
<rect width="468" height="383" fill="white"/>
</clipPath>
<clipPath id="clip1_1714_2">
<rect width="184.275" height="104.094" fill="white" transform="translate(107.84 227.29)"/>
</clipPath>
</defs>
</svg>
