<svg width="70" height="43" viewBox="0 0 70 43" fill="none" xmlns="http://www.w3.org/2000/svg">
<path d="M44.616 6.13197C46.6734 4.33257 48.3551 2.16329 50.1295 0.0957031C50.5061 2.01204 50.8582 3.95888 50.6091 5.9125C50.4239 8.00721 49.7126 10.0261 48.6313 11.8255C49.3846 12.891 49.8316 14.1252 50.4527 15.2633C51.6518 17.4978 53.277 19.5226 55.3467 21.0076C54.6362 21.3351 53.8647 21.5105 53.0826 21.5232C54.3231 23.3341 54.696 25.5961 54.3286 27.7396C53.7931 26.9731 53.2376 26.224 52.65 25.4987C51.8704 28.0768 50.1968 30.366 47.8564 31.7421C48.0538 30.2741 48.3906 28.8263 48.4843 27.3451C48.0445 28.5378 47.7259 29.7805 47.1141 30.9037C46.4307 32.3544 45.4354 33.6229 44.3754 34.816C44.4864 33.3852 44.3046 31.9468 43.8411 30.5884C43.3619 31.7163 43.1933 32.9446 42.8086 34.108C42.1298 36.2366 41.5163 38.408 40.5258 40.4201C40.1004 41.4149 39.0323 41.8267 38.0955 42.2013C36.5778 42.7512 34.8797 43.2135 33.2892 42.6461C31.8131 42.1593 29.9442 41.7759 29.3404 40.1375C27.9982 37.0886 27.0979 33.8614 26.2725 30.6423C25.5794 31.8964 25.4997 33.3843 25.6137 34.7863C24.3676 33.4216 23.2707 31.9116 22.5373 30.2059C22.1441 29.2746 21.8844 28.2946 21.5192 27.3515C21.5988 28.8263 21.9378 30.2694 22.1653 31.7248C19.8172 30.4152 18.1013 28.0912 17.4242 25.5034C16.7353 26.2164 16.1464 27.0193 15.6727 27.8904C15.2507 25.6864 15.6825 23.3697 16.9442 21.5088C16.1578 21.5279 15.3986 21.3305 14.6758 21.0449C16.1434 19.8954 17.4878 18.5816 18.4962 16.9995C19.6668 15.3709 20.3341 13.4545 21.4001 11.7653C20.6082 10.0261 19.9015 8.22668 19.6062 6.33152C19.3414 4.27537 19.4351 2.18957 19.8833 0.165615C21.8441 2.33489 23.6062 4.72152 25.9073 6.55184C26.4132 6.86791 26.9559 7.44286 27.6101 7.20729C30.1641 6.45778 32.8511 6.68022 35.4792 6.64929C37.7197 6.67047 40.0118 6.526 42.1904 7.16492C43.145 7.53183 43.9313 6.65734 44.616 6.13197ZM20.8366 6.87469C21.0866 8.27921 21.5115 9.48502 22.3195 10.6879C22.8046 9.55324 23.3914 9.21556 24.4392 8.62537C22.264 7.07594 21.6399 4.93251 20.5489 2.63782C20.2871 4.30588 20.5947 5.21977 20.8366 6.87469ZM49.5541 2.63782C48.5457 5.00623 47.7788 7.03357 45.6197 8.62537C46.7116 9.21641 47.2768 9.50833 47.7407 10.6879C49.2181 7.88688 50.0786 5.76633 49.5541 2.63782ZM28.371 14.6358C28.5545 15.0785 28.7884 15.5069 28.882 15.9772C28.882 16.5742 28.3498 17.0237 27.8207 17.197C26.3827 17.6923 24.8218 17.924 23.5478 18.807C22.239 19.6213 21.2959 20.8839 20.5489 22.2092C21.4442 21.6677 23.18 21.0267 24.2261 21.0449C23.8228 21.8296 22.9195 23.7662 22.955 24.6695C22.9711 27.2693 23.463 27.6964 24.6498 29.9656C25.3997 28.4776 26.4413 26.537 26.4413 26.537C26.4413 26.537 28.9595 37.3653 29.8675 39.4426C30.5279 40.1227 30.978 40.648 31.6961 41.0391C31.9986 41.1823 32.327 41.2653 32.6613 41.2827C33.3049 41.0412 33.9539 40.809 34.6001 40.5735C34.6441 40.1824 34.689 39.7964 34.7331 39.4075C34.0497 39.2579 33.3421 39.1554 32.7053 38.8508C31.9118 38.4741 31.6262 37.3886 32.0448 36.6345C32.7642 36.3709 33.5531 36.5014 34.3026 36.4751C35.4707 36.5251 36.6461 36.4006 37.8099 36.5366C38.4281 37.1632 38.1472 38.2872 37.4591 38.7482C36.8032 39.1312 36.0351 39.2511 35.3068 39.4265C35.322 39.7142 35.3508 40.3629 35.3648 40.5832C35.461 40.6154 36.5778 41.106 37.0956 41.3802C38.323 41.2403 39.4674 40.5705 40.0292 39.4477C41.6104 35.4735 42.5226 30.6508 43.817 26.2851C44.2771 27.8062 44.6991 28.5047 45.4104 29.9656C46.3472 28.3429 46.515 27.9874 46.8933 26.1524C47.2768 24.603 46.2883 22.8913 45.4104 21.5088C46.5252 21.4715 48.6847 21.666 49.5541 22.3749C48.5563 20.3742 46.87 18.643 44.7033 17.9566C43.6284 17.5495 42.4023 17.4681 41.4596 16.7707C40.8185 16.1555 41.3782 15.2874 41.6104 14.6222C38.1637 17.0563 35.5788 20.8504 35.0305 25.078C34.3959 20.8631 31.8436 17.0627 28.371 14.6358Z" fill="#42AB65"/>
<path d="M26.4536 21.7246C27.5802 22.2513 28.772 22.6165 29.9355 23.0495C31.326 23.6371 32.3238 24.9256 32.8339 26.3178C31.4275 24.6539 31.0569 24.8956 29.3338 24.9239C28.7758 24.9345 28.2149 24.8281 27.7653 24.4697C26.9828 23.7613 26.7536 22.6885 26.4536 21.7246ZM28.4441 22.8694C27.879 22.755 28.3614 24.2022 29.308 23.4922C29.3584 22.9605 29.3338 23.0495 28.4441 22.8694Z" fill="#42AB65"/>
<path d="M43.1055 21.7031C41.9789 22.2298 40.7871 22.595 39.6236 23.028C38.2331 23.6157 37.2353 24.9041 36.7252 26.2963C38.1316 24.6324 38.5022 24.8741 40.2253 24.9024C40.7832 24.913 41.3442 24.8066 41.7937 24.4482C42.5763 23.7398 42.8055 22.667 43.1055 21.7031ZM41.115 22.8479C41.6801 22.7336 41.1977 24.1807 40.2511 23.4707C40.2007 22.939 40.2253 23.028 41.115 22.8479Z" fill="#42AB65"/>
<path d="M55.6278 6.66472C53.6651 8.53233 51.7345 10.4474 49.77 12.318C49.7605 12.3269 49.7529 12.3383 49.7474 12.351C49.7419 12.3641 49.7393 12.3781 49.7393 12.3925C49.7393 12.4069 49.7419 12.4213 49.7474 12.4341C49.7529 12.4472 49.7605 12.4582 49.77 12.4675C50.1975 12.8505 50.6217 13.2463 51.0656 13.6055C51.0809 13.6187 51.0996 13.625 51.1182 13.6238C51.1372 13.6229 51.1551 13.6144 51.169 13.6C52.5208 12.2968 53.6253 10.7003 54.7812 9.17591C54.7918 9.16023 54.8064 9.14837 54.8232 9.14286C54.8401 9.13693 54.858 9.13777 54.874 9.14455C54.8905 9.15133 54.9047 9.16405 54.9146 9.18057C54.9244 9.19752 54.9296 9.21701 54.9292 9.23734C54.9836 11.4528 54.3135 13.414 53.5982 15.4647C53.5594 15.5954 53.4952 15.5256 53.4769 15.5134C52.6311 14.9491 50.8189 12.5523 49.77 12.318C49.8683 12.6124 49.6087 12.4675 52.6457 15.7041C54.8645 18.0687 56.6171 19.3287 58.8567 21.6615C59.758 22.6398 60.7756 23.2025 61.1048 24.66C61.3653 25.6366 61.3529 26.6725 61.4354 27.6783V27.6889C61.5611 28.5337 62.0141 29.2476 62.3894 29.9624C63.853 32.4249 65.1693 35 66.3297 37.6701C66.3385 37.6909 66.3407 37.7146 66.3355 37.7366C66.3308 37.7591 66.3187 37.7786 66.3023 37.7917C65.1872 38.6607 64.2413 39.1153 62.7997 38.7882C61.5034 38.4539 60.6678 37.4947 59.7701 36.4906C58.8392 35.397 57.9294 34.098 56.6646 33.5248C56.2791 33.3591 55.197 33.687 55.5788 34.4086C56.0592 35.2365 56.9843 35.3466 57.7125 35.7423C59.118 36.3736 59.8995 37.9883 61.1395 38.9043C61.6437 39.3593 62.2538 39.5826 62.8508 39.8127C62.8698 39.8203 62.8859 39.836 62.8961 39.8563C62.9067 39.8767 62.9104 39.9004 62.9071 39.9237C62.8442 40.4258 61.9977 40.2419 61.739 40.1279L61.7306 40.1228C59.4603 38.8831 57.7622 36.4609 55.3103 35.608H55.3019C53.7417 35.0077 51.8204 34.7899 50.2709 35.0077C48.1836 35.3792 46.4347 35.855 44.5568 37.6625L44.5462 37.6701C44.5462 37.6701 42.7852 39.3352 42.81 40.6135C42.8108 40.6296 42.8148 40.6452 42.8221 40.6588C42.8294 40.6728 42.8396 40.6842 42.8517 40.6923C42.8641 40.6999 42.8776 40.7041 42.8915 40.7046C42.9054 40.7046 42.9193 40.7007 42.9313 40.6931C44.5528 39.7352 46.4347 39.5004 48.4441 40.1228C48.0788 39.0327 46.7427 38.8323 46.0672 38.8323C47.8198 37.6824 49.7857 38.3141 51.3669 38.8323C50.4536 37.1261 48.6027 36.921 48.0788 36.9142C49.7568 36.213 51.2281 36.2029 53.5591 36.4906C55.5861 36.8507 57.54 38.2438 59.2097 39.5004C60.2798 40.2885 61.4303 41.5057 62.7997 41.0333C64.1332 40.4834 65.321 39.5835 66.5511 38.7882C66.5613 38.7819 66.5723 38.778 66.5836 38.7768C66.5949 38.7759 66.6066 38.7772 66.6172 38.7814C67.649 39.1861 68.866 39.0509 69.7523 38.3061C70.1659 37.9815 70.0004 37.279 69.7005 36.9236C68.0765 34.759 66.3363 32.7142 64.6367 30.6297C63.975 29.7277 63.0879 28.832 63.0938 27.547C63.0616 26.0314 63.0759 24.2664 61.9959 23.1834C59.6317 20.6159 56.9653 18.4542 54.3402 16.2676C54.3249 16.2544 54.3139 16.2358 54.3092 16.2146C54.3044 16.193 54.3063 16.1706 54.3139 16.1506C55.4787 13.2158 55.7344 9.93007 55.7633 6.73548C55.7629 6.71768 55.7578 6.70031 55.7494 6.68506C55.7406 6.67023 55.7286 6.65836 55.7147 6.65116C55.7005 6.64353 55.6848 6.64099 55.6694 6.64353C55.6541 6.64565 55.6394 6.65328 55.6278 6.66472Z" fill="#42AB65"/>
<path d="M59.9526 25.8979C59.5375 25.288 58.7732 24.856 57.7605 24.2031C58.4068 25.1039 58.6524 25.1323 59.0392 26.1097C59.2716 26.6969 58.8879 27.7951 59.2219 28.2281C59.5595 28.7167 60.0356 29.4694 60.4049 29.9197C60.4696 29.0143 60.6654 28.1157 60.6168 27.2035C60.5562 26.69 60.2778 26.1949 59.9526 25.8979ZM60.1353 27.2035C60.3486 27.4174 60.151 28.1034 59.7754 27.9242C59.4046 27.5926 59.7838 27.009 60.1353 27.2035Z" fill="#42AB65"/>
<path d="M14.3722 6.66472C16.3349 8.53233 18.2655 10.4474 20.23 12.318C20.2395 12.3269 20.2471 12.3383 20.2526 12.351C20.2581 12.3641 20.2607 12.3781 20.2607 12.3925C20.2607 12.4069 20.2581 12.4213 20.2526 12.4341C20.2471 12.4472 20.2395 12.4582 20.23 12.4675C19.8025 12.8505 19.3783 13.2463 18.9344 13.6055C18.9191 13.6187 18.9004 13.625 18.8818 13.6238C18.8628 13.6229 18.8449 13.6144 18.831 13.6C17.4792 12.2968 16.3747 10.7003 15.2188 9.17591C15.2082 9.16023 15.1936 9.14837 15.1768 9.14286C15.1599 9.13693 15.142 9.13777 15.126 9.14455C15.1095 9.15133 15.0953 9.16405 15.0854 9.18057C15.0756 9.19752 15.0704 9.21701 15.0708 9.23734C15.0164 11.4528 15.6865 13.414 16.4018 15.4647C16.4406 15.5954 16.5048 15.5256 16.5231 15.5134C17.3689 14.9491 19.1811 12.5523 20.23 12.318C20.1317 12.6124 20.3913 12.4675 17.3543 15.7041C15.1355 18.0687 13.3829 19.3287 11.1433 21.6615C10.242 22.6398 9.22441 23.2025 8.89522 24.66C8.63472 25.6366 8.64715 26.6725 8.56458 27.6783V27.6889C8.4389 28.5337 7.98586 29.2476 7.61064 29.9624C6.14703 32.4249 4.83066 35 3.6703 37.6701C3.66153 37.6909 3.65934 37.7146 3.66445 37.7366C3.6692 37.7591 3.68126 37.7786 3.6977 37.7917C4.81276 38.6607 5.75866 39.1153 7.20035 38.7882C8.49662 38.4539 9.33224 37.4947 10.2299 36.4906C11.1608 35.397 12.0706 34.098 13.3354 33.5248C13.7209 33.3591 14.803 33.687 14.4212 34.4086C13.9408 35.2365 13.0157 35.3466 12.2875 35.7423C10.882 36.3736 10.1005 37.9883 8.86051 38.9043C8.35632 39.3593 7.74618 39.5826 7.1492 39.8127C7.1302 39.8203 7.11412 39.836 7.10389 39.8563C7.0933 39.8767 7.08964 39.9004 7.09293 39.9237C7.15577 40.4258 8.0023 40.2419 8.26097 40.1279L8.26937 40.1228C10.5397 38.8831 12.2378 36.4609 14.6897 35.608H14.6981C16.2583 35.0077 18.1796 34.7899 19.7291 35.0077C21.8164 35.3792 23.5653 35.855 25.4432 37.6625L25.4538 37.6701C25.4538 37.6701 27.2148 39.3352 27.19 40.6135C27.1892 40.6296 27.1852 40.6452 27.1779 40.6588C27.1706 40.6728 27.1604 40.6842 27.1483 40.6923C27.1359 40.6999 27.1224 40.7041 27.1085 40.7046C27.0946 40.7046 27.0807 40.7007 27.0687 40.6931C25.4472 39.7352 23.5653 39.5004 21.5559 40.1228C21.9212 39.0327 23.2573 38.8323 23.9328 38.8323C22.1802 37.6824 20.2143 38.3141 18.6331 38.8323C19.5464 37.1261 21.3973 36.921 21.9212 36.9142C20.2432 36.213 18.7719 36.2029 16.4409 36.4906C14.4139 36.8507 12.46 38.2438 10.7903 39.5004C9.72019 40.2885 8.56969 41.5057 7.20035 41.0333C5.8668 40.4834 4.67904 39.5835 3.44889 38.7882C3.43866 38.7819 3.4277 38.778 3.41638 38.7768C3.40505 38.7759 3.39336 38.7772 3.38276 38.7814C2.351 39.1861 1.13401 39.0509 0.24766 38.3061C-0.16592 37.9815 -0.000412779 37.279 0.299543 36.9236C1.92354 34.759 3.66372 32.7142 5.36335 30.6297C6.025 29.7277 6.91208 28.832 6.90624 27.547C6.93839 26.0314 6.92414 24.2664 8.00413 23.1834C10.3683 20.6159 13.0347 18.4542 15.6598 16.2676C15.6751 16.2544 15.6861 16.2358 15.6908 16.2146C15.6956 16.193 15.6937 16.1706 15.6861 16.1506C14.5213 13.2158 14.2656 9.93007 14.2367 6.73548C14.2371 6.71768 14.2422 6.70031 14.2506 6.68506C14.2594 6.67023 14.2714 6.65836 14.2853 6.65116C14.2995 6.64353 14.3152 6.64099 14.3306 6.64353C14.3459 6.64565 14.3606 6.65328 14.3722 6.66472Z" fill="#42AB65"/>
<path d="M10.0474 25.8979C10.4625 25.288 11.2268 24.856 12.2395 24.2031C11.5932 25.1039 11.3476 25.1323 10.9608 26.1097C10.7284 26.6969 11.1121 27.7951 10.7781 28.2281C10.4405 28.7167 9.96443 29.4694 9.59506 29.9197C9.53039 29.0143 9.33456 28.1157 9.38315 27.2035C9.4438 26.69 9.72225 26.1949 10.0474 25.8979ZM9.86474 27.2035C9.65137 27.4174 9.84903 28.1034 10.2246 27.9242C10.5954 27.5926 10.2162 27.009 9.86474 27.2035Z" fill="#42AB65"/>
<path d="M31.9956 28.0576C32.8319 28.8374 33.129 29.9073 32.9255 30.8833C32.627 32.3347 32.3389 33.7894 31.9945 35.2283C32.28 32.8591 32.3381 30.4525 31.9956 28.0576Z" fill="#42AB65"/>
<path d="M37.0453 30.7845C36.893 29.7831 37.1518 28.6829 38.0937 27.9513C37.5598 30.3236 37.7476 32.7312 37.7863 35.1168C37.6255 33.6569 37.2545 32.2283 37.0453 30.7845Z" fill="#42AB65"/>
</svg>
