<svg width="24" height="24" viewBox="0 0 24 24" fill="none" xmlns="http://www.w3.org/2000/svg">
<path fill-rule="evenodd" clip-rule="evenodd" d="M10.5 3C9.70435 3 8.94129 3.31607 8.37868 3.87868C7.81607 4.44129 7.5 5.20435 7.5 6C7.5 6.79565 7.81607 7.55871 8.37868 8.12132C8.94129 8.68393 9.70435 9 10.5 9C11.2957 9 12.0587 8.68393 12.6213 8.12132C13.1839 7.55871 13.5 6.79565 13.5 6C13.5 5.20435 13.1839 4.44129 12.6213 3.87868C12.0587 3.31607 11.2956 3 10.5 3ZM6.25736 1.75736C7.38258 0.632141 8.9087 0 10.5 0C12.0913 0 13.6174 0.632141 14.7426 1.75736C15.8679 2.88258 16.5 4.4087 16.5 6C16.5 7.5913 15.8679 9.11742 14.7426 10.2426C13.6174 11.3679 12.0913 12 10.5 12C8.9087 12 7.38258 11.3679 6.25736 10.2426C5.13214 9.11742 4.5 7.5913 4.5 6C4.5 4.4087 5.13214 2.88258 6.25736 1.75736ZM23.6156 15.7406C24.1281 15.228 24.1281 14.397 23.6156 13.8844C23.103 13.3719 22.272 13.3719 21.7594 13.8844L18.75 16.8938L15.7406 13.8844C15.228 13.3719 14.397 13.3719 13.8844 13.8844C13.3719 14.397 13.3719 15.228 13.8844 15.7406L16.8938 18.75L13.8844 21.7594C13.3719 22.272 13.3719 23.103 13.8844 23.6156C14.397 24.1281 15.228 24.1281 15.7406 23.6156L18.75 20.6062L21.7594 23.6156C22.272 24.1281 23.103 24.1281 23.6156 23.6156C24.1281 23.103 24.1281 22.272 23.6156 21.7594L20.6062 18.75L23.6156 15.7406ZM7.5 13.5H12V16.5H7.5C6.30653 16.5 5.16193 16.9741 4.31802 17.818C3.47411 18.6619 3 19.8065 3 21V22.5C3 23.3284 2.32843 24 1.5 24C0.671573 24 0 23.3284 0 22.5V21C0 19.0109 0.790176 17.1032 2.1967 15.6967C3.60322 14.2902 5.51088 13.5 7.5 13.5Z" fill="#212328"/>
</svg>
