<svg width="29" height="29" viewBox="0 0 29 29" fill="none" xmlns="http://www.w3.org/2000/svg">
<path fill-rule="evenodd" clip-rule="evenodd" d="M14.0172 28.0345C21.7588 28.0345 28.0345 21.7588 28.0345 14.0172C28.0345 6.27573 21.7588 0 14.0172 0C6.27573 0 0 6.27573 0 14.0172C0 21.7588 6.27573 28.0345 14.0172 28.0345ZM26.4102 14.0172C26.4102 7.18064 20.8473 1.62427 14.0172 1.62427C7.18714 1.62427 1.62427 7.18714 1.62427 14.0172C1.62427 17.0456 2.71605 19.8206 4.52918 21.9781C5.68594 21.4777 8.57785 20.4379 10.404 19.8985L10.4052 19.8982C10.5471 19.853 10.5729 19.8448 10.5729 19.2032C10.5729 18.5143 10.495 18.0269 10.326 17.6695C10.0985 17.1756 9.8256 16.3568 9.72812 15.6159C9.45517 15.2975 9.08475 14.6736 8.8443 13.4779C8.62984 12.4251 8.73382 12.0416 8.87029 11.6842C8.87462 11.6712 8.87895 11.6589 8.88329 11.6467C8.89195 11.6221 8.90062 11.5976 8.90928 11.5672C8.96127 11.3203 8.88979 10.0401 8.70782 9.04576C8.58435 8.36339 8.74032 6.91419 9.68263 5.71194C10.2805 4.95159 11.4113 4.02228 13.4519 3.89231H14.5891C16.6622 4.02228 17.7995 4.95159 18.3908 5.71194C19.3267 6.91419 19.4826 8.36339 19.3592 9.04576C19.1772 10.0401 19.1057 11.3203 19.1577 11.5672C19.1617 11.5873 19.1706 11.6097 19.1799 11.6331C19.1857 11.6478 19.1917 11.6627 19.1967 11.6777C19.3332 12.0351 19.4306 12.4186 19.2227 13.4714C18.9887 14.6671 18.6118 15.291 18.3389 15.6094C18.2414 16.3503 17.9749 17.1756 17.741 17.663C17.5265 18.1179 17.3121 18.6508 17.3121 19.1772C17.3121 19.8141 17.3316 19.8271 17.4875 19.8725C19.2422 20.3924 22.2251 21.4257 23.5248 21.9586C25.3249 19.8076 26.4102 17.0391 26.4102 14.0172Z" fill="#878A92"/>
</svg>
