<svg width="28" height="28" viewBox="0 0 28 28" fill="none" xmlns="http://www.w3.org/2000/svg">
<path fill-rule="evenodd" clip-rule="evenodd" d="M24.5 10.3242L26.9492 11.1133C27.5625 11.2871 28 11.9004 28 12.5117V15.4883C28 16.0996 27.5625 16.625 27.0391 16.8008L24.5 17.5879L23.9766 18.9004L25.1992 21.1758C25.4609 21.6992 25.375 22.4004 24.9375 22.8379L22.8359 24.9375C22.3984 25.375 21.6992 25.4629 21.1758 25.1992L18.8984 23.9746L17.5859 24.5L16.8008 27.0371C16.625 27.5625 16.1016 28 15.4883 28H12.5117C12.1445 28 11.8047 27.8418 11.5586 27.6016C11.3945 27.4414 11.2695 27.2461 11.1992 27.0371L10.4141 24.5L9.10156 23.9746L6.82422 25.1992C6.30078 25.4629 5.60156 25.375 5.16406 24.9375L3.0625 22.8379C2.625 22.4004 2.53906 21.6992 2.80078 21.1758L4.02344 18.9004L3.5 17.5879L1.05078 16.8008C0.4375 16.625 0 16.0996 0 15.4883V12.5117C0 11.9004 0.4375 11.375 0.960938 11.1992L3.41406 10.4121L3.66016 9.75781C3.75 9.50195 3.84375 9.24414 3.9375 9.01172L2.80078 6.82422C2.53906 6.30078 2.625 5.59961 3.0625 5.16211L5.16406 3.0625C5.60156 2.625 6.30078 2.53711 6.82422 2.80078L9.10156 4.02539C9.33203 3.88672 9.5625 3.77148 9.80469 3.68164C10.0234 3.60156 10.2539 3.54102 10.5 3.5L11.2891 1.05078C11.3359 0.726562 11.5039 0.451172 11.7422 0.263672C11.9531 0.0957031 12.2227 0 12.5117 0H15.4883C16.1016 0 16.625 0.4375 16.8008 0.962891L17.5859 3.41211L18.8984 3.9375L21.1758 2.71289C21.6992 2.44922 22.3984 2.53711 22.8359 2.97461L24.9375 5.07422C25.1523 5.29102 25.2852 5.57227 25.3281 5.86328C25.375 6.16211 25.332 6.47266 25.1992 6.73828L23.9766 9.01172L24.5 10.3242ZM23.1016 16.1875L26.25 15.2246V12.7754L23.1016 11.8125L23.0117 11.375C22.8359 10.7617 22.5742 10.1504 22.2266 9.53711L21.9609 9.09961L23.5391 6.21289L21.7891 4.46289L18.8984 6.03711L18.4609 5.77539C17.8516 5.42578 17.2383 5.16211 16.625 4.98828L16.1875 4.8125L15.2266 1.75H12.7734L11.8125 4.8125L11.375 4.98828C10.6758 5.16211 10.0625 5.42578 9.44922 5.77539L9.01172 6.03711L6.21094 4.46289L4.46094 6.21289L5.94922 9.09961L5.6875 9.53711C5.33594 10.1504 5.07422 10.7617 4.89844 11.4629L4.72656 11.9004L1.75 12.7754V15.2246L4.89844 16.1875L4.98828 16.625C5.16406 17.2383 5.42578 17.8496 5.77344 18.4629L6.03906 18.9004L4.46094 21.7871L6.21094 23.5371L9.10156 21.9629L9.53906 22.2246L11.375 23.0117L11.8125 23.0996L12.7734 26.25H15.2266L16.1875 23.0996L16.625 23.0117C17.2383 22.8379 17.8516 22.5742 18.4609 22.2246L18.8984 21.9629L21.7891 23.5371L23.5391 21.7871L21.9609 18.9004L22.2266 18.4629L23.0117 16.625L23.1016 16.1875ZM7.96094 14C7.96094 10.5879 10.6719 7.875 14.0859 7.875C17.5 7.875 20.2109 10.5879 20.2109 14C20.2109 17.4121 17.5 20.125 14.0859 20.125C12.1055 20.125 10.3594 19.2109 9.24609 17.7793C8.4375 16.7422 7.96094 15.4336 7.96094 14ZM9.71094 14C9.71094 16.4492 11.6367 18.375 14.0859 18.375C16.5352 18.375 18.4609 16.4492 18.4609 14C18.4609 11.5508 16.5352 9.625 14.0859 9.625C11.6367 9.625 9.71094 11.5508 9.71094 14Z" fill="#878A92"/>
</svg>
