<svg width="30" height="17" viewBox="0 0 30 17" fill="none" xmlns="http://www.w3.org/2000/svg">
<g clip-path="url(#clip0_2178_16)">
<path d="M19.1216 2.42403C20.0033 1.71264 20.724 0.855016 21.4845 0.0375977C21.6459 0.795219 21.7968 1.5649 21.69 2.33726C21.6107 3.1654 21.3058 3.96357 20.8424 4.67496C21.1652 5.0962 21.3568 5.58414 21.623 6.03409C22.1369 6.9175 22.8334 7.718 23.7204 8.30509C23.4159 8.43457 23.0853 8.50391 22.7501 8.50893C23.2817 9.22487 23.4416 10.1191 23.2841 10.9666C23.0546 10.6635 22.8165 10.3674 22.5647 10.0806C22.2306 11.0999 21.5133 12.0049 20.5103 12.549C20.5949 11.9686 20.7392 11.3962 20.7794 10.8106C20.5909 11.2821 20.4544 11.7734 20.1922 12.2175C19.8993 12.791 19.4727 13.2925 19.0184 13.7642C19.066 13.1986 18.9881 12.6299 18.7895 12.0929C18.5841 12.5388 18.5118 13.0244 18.347 13.4843C18.056 14.3259 17.7931 15.1843 17.3686 15.9798C17.1863 16.3731 16.7285 16.5359 16.3271 16.684C15.6766 16.9014 14.9489 17.0842 14.2672 16.8598C13.6346 16.6674 12.8336 16.5158 12.5749 15.8681C11.9996 14.6627 11.6138 13.3868 11.2601 12.1142C10.963 12.61 10.9289 13.1982 10.9777 13.7525C10.4437 13.213 9.97357 12.616 9.65925 11.9416C9.49074 11.5734 9.37944 11.186 9.22292 10.8131C9.25704 11.3962 9.40232 11.9667 9.49982 12.5421C8.4935 12.0244 7.75811 11.1056 7.46792 10.0825C7.17268 10.3644 6.9203 10.6818 6.71728 11.0262C6.53642 10.1549 6.72148 9.23895 7.26221 8.50324C6.92518 8.51079 6.59981 8.43275 6.29004 8.31984C6.91901 7.86539 7.49518 7.34598 7.92735 6.72049C8.42904 6.07663 8.71502 5.31898 9.17188 4.65116C8.8325 3.96357 8.52962 3.25217 8.40307 2.50292C8.28958 1.69002 8.32974 0.865406 8.52182 0.0652372C9.36217 0.922858 10.1174 1.86641 11.1035 2.59002C11.3204 2.71498 11.5529 2.94229 11.8333 2.84916C12.9279 2.55284 14.0795 2.64078 15.2058 2.62855C16.166 2.63692 17.1483 2.57981 18.082 2.8324C18.4911 2.97746 18.8281 2.63173 19.1216 2.42403ZM8.93038 2.71766C9.03752 3.27294 9.21962 3.74965 9.56591 4.22521C9.77381 3.77662 10.0253 3.64312 10.4744 3.40979C9.54212 2.79723 9.27465 1.94982 8.80708 1.04262C8.69488 1.70209 8.82671 2.06339 8.93038 2.71766ZM21.2379 1.04262C20.8057 1.97897 20.477 2.78048 19.5517 3.40979C20.0197 3.64346 20.2619 3.75887 20.4607 4.22521C21.0939 3.11783 21.4627 2.27947 21.2379 1.04262ZM12.1594 5.78601C12.2381 5.96103 12.3383 6.1304 12.3784 6.31633C12.3784 6.55235 12.1503 6.73006 11.9236 6.79858C11.3073 6.99439 10.6383 7.08599 10.0923 7.43509C9.53141 7.75702 9.12722 8.25619 8.80708 8.78014C9.19078 8.56606 9.9347 8.31264 10.383 8.31984C10.2102 8.63007 9.82305 9.3957 9.83827 9.75282C9.84517 10.7806 10.056 10.9495 10.5646 11.8466C10.886 11.2583 11.3324 10.4911 11.3324 10.4911C11.3324 10.4911 12.4116 14.7721 12.8008 15.5933C13.0838 15.8622 13.2767 16.0699 13.5845 16.2245C13.7141 16.2811 13.8548 16.314 13.9981 16.3208C14.2739 16.2254 14.5521 16.1336 14.829 16.0404C14.8479 15.8858 14.8671 15.7332 14.886 15.5795C14.5931 15.5203 14.2899 15.4798 14.017 15.3594C13.6769 15.2105 13.5545 14.7813 13.7339 14.4832C14.0422 14.379 14.3803 14.4305 14.7015 14.4202C15.2021 14.4399 15.7059 14.3907 16.2047 14.4445C16.4696 14.6922 16.3492 15.1366 16.0543 15.3188C15.7732 15.4702 15.444 15.5176 15.1319 15.587C15.1384 15.7007 15.1508 15.9572 15.1568 16.0443C15.198 16.057 15.6766 16.251 15.8985 16.3594C16.4246 16.3041 16.915 16.0393 17.1558 15.5954C17.8334 14.0242 18.2244 12.1175 18.7791 10.3915C18.9763 10.9929 19.1572 11.2691 19.462 11.8466C19.8635 11.2051 19.9354 11.0645 20.0975 10.3391C20.2619 9.72653 19.8383 9.04981 19.462 8.50324C19.9398 8.48849 20.8653 8.56539 21.2379 8.84565C20.8103 8.05468 20.0876 7.37025 19.159 7.09888C18.6983 6.93794 18.1728 6.90575 17.7688 6.63004C17.4941 6.38682 17.7339 6.04362 17.8334 5.78063C16.3563 6.74295 15.2485 8.24294 15.0135 9.91432C14.7415 8.24796 13.6477 6.74548 12.1594 5.78601Z" fill="#42AB65"/>
<path d="M11.3369 8.58887C11.8197 8.7971 12.3305 8.94148 12.8292 9.11266C13.4251 9.34497 13.8527 9.85438 14.0713 10.4048C13.4686 9.74696 13.3098 9.84252 12.5713 9.85371C12.3321 9.8579 12.0918 9.81583 11.8991 9.67414C11.5637 9.39407 11.4655 8.96994 11.3369 8.58887ZM12.19 9.04146C11.9478 8.99623 12.1545 9.56838 12.5602 9.28769C12.5818 9.07748 12.5713 9.11266 12.19 9.04146Z" fill="#42AB65"/>
<path d="M18.4737 8.58008C17.9908 8.78831 17.4801 8.93269 16.9814 9.10388C16.3855 9.33622 15.9579 9.84559 15.7393 10.396C16.342 9.73817 16.5008 9.83373 17.2393 9.84492C17.4784 9.84911 17.7188 9.80704 17.9115 9.66535C18.2469 9.38529 18.3451 8.96115 18.4737 8.58008ZM17.6206 9.03267C17.8628 8.98749 17.656 9.55959 17.2504 9.2789C17.2288 9.06869 17.2393 9.10388 17.6206 9.03267Z" fill="#42AB65"/>
<path d="M23.8401 2.63473C22.999 3.37309 22.1716 4.13021 21.3296 4.86975C21.3256 4.87327 21.3223 4.87777 21.32 4.88279C21.3176 4.88797 21.3165 4.89351 21.3165 4.8992C21.3165 4.90489 21.3176 4.91059 21.32 4.91565C21.3223 4.92083 21.3256 4.92518 21.3296 4.92885C21.5129 5.08027 21.6947 5.23675 21.8849 5.37876C21.8915 5.38398 21.8995 5.38647 21.9074 5.38599C21.9156 5.38564 21.9233 5.38228 21.9292 5.37659C22.5086 4.86137 22.9819 4.23019 23.4773 3.62753C23.4818 3.62133 23.4881 3.61664 23.4953 3.61446C23.5025 3.61212 23.5102 3.61245 23.5171 3.61513C23.5241 3.61781 23.5302 3.62284 23.5345 3.62937C23.5387 3.63607 23.5409 3.64378 23.5407 3.65181C23.564 4.52769 23.2769 5.30305 22.9703 6.11379C22.9537 6.16546 22.9262 6.13787 22.9183 6.13305C22.5558 5.90995 21.7792 4.96238 21.3296 4.86975C21.3718 4.98614 21.2605 4.92885 22.5621 6.20844C23.513 7.14328 24.2641 7.64142 25.2239 8.56369C25.6102 8.95046 26.0463 9.17292 26.1874 9.74914C26.2991 10.1352 26.2937 10.5448 26.3291 10.9424V10.9466C26.383 11.2806 26.5771 11.5628 26.738 11.8454C27.3652 12.819 27.9293 13.8371 28.4267 14.8927C28.4304 14.9009 28.4314 14.9103 28.4291 14.919C28.4271 14.9279 28.4219 14.9356 28.4149 14.9407C27.937 15.2843 27.5316 15.464 26.9138 15.3347C26.3582 15.2025 26.0001 14.8233 25.6154 14.4264C25.2164 13.994 24.8265 13.4804 24.2845 13.2538C24.1193 13.1883 23.6555 13.318 23.8191 13.6032C24.025 13.9306 24.4215 13.9741 24.7336 14.1305C25.3359 14.3801 25.6709 15.0185 26.2023 15.3806C26.4184 15.5605 26.6798 15.6488 26.9357 15.7397C26.9438 15.7428 26.9507 15.749 26.9551 15.757C26.9597 15.765 26.9612 15.7744 26.9598 15.7836C26.9329 15.9821 26.5701 15.9094 26.4592 15.8644L26.4556 15.8623C25.4826 15.3722 24.7549 14.4146 23.7041 14.0774H23.7005C23.0318 13.8401 22.2084 13.754 21.5443 13.8401C20.6498 13.987 19.9002 14.1751 19.0954 14.8897L19.0909 14.8927C19.0909 14.8927 18.3362 15.551 18.3468 16.0563C18.3471 16.0627 18.3488 16.0689 18.352 16.0742C18.3551 16.0798 18.3595 16.0843 18.3647 16.0875C18.37 16.0905 18.3758 16.0922 18.3817 16.0924C18.3877 16.0924 18.3936 16.0908 18.3988 16.0878C19.0937 15.7091 19.9002 15.6163 20.7614 15.8623C20.6048 15.4314 20.0322 15.3521 19.7427 15.3521C20.4938 14.8975 21.3364 15.1473 22.014 15.3521C21.6226 14.6776 20.8294 14.5965 20.6048 14.5938C21.324 14.3166 21.9545 14.3126 22.9535 14.4264C23.8223 14.5687 24.6596 15.1195 25.3752 15.6163C25.8338 15.9279 26.3269 16.4091 26.9138 16.2223C27.4853 16.0049 27.9944 15.6491 28.5215 15.3347C28.5259 15.3322 28.5306 15.3307 28.5355 15.3302C28.5403 15.3298 28.5453 15.3304 28.5499 15.332C28.9921 15.492 29.5136 15.4386 29.8935 15.1441C30.0707 15.0158 29.9998 14.7381 29.8713 14.5975C29.1753 13.7418 28.4295 12.9334 27.7011 12.1093C27.4175 11.7527 27.0373 11.3985 27.0398 10.8905C27.026 10.2913 27.0322 9.59353 26.5693 9.16537C25.5561 8.15031 24.4133 7.29569 23.2883 6.43122C23.2817 6.426 23.277 6.41865 23.275 6.41026C23.273 6.40173 23.2738 6.39287 23.277 6.38496C23.7762 5.22469 23.8858 3.92568 23.8982 2.66271C23.898 2.65567 23.8958 2.6488 23.8922 2.64277C23.8885 2.63691 23.8833 2.63222 23.8774 2.62937C23.8713 2.62635 23.8646 2.62535 23.858 2.62635C23.8514 2.62719 23.8451 2.63021 23.8401 2.63473Z" fill="#42AB65"/>
<path d="M25.6944 10.2389C25.5165 9.99776 25.1889 9.82697 24.7549 9.56885C25.0319 9.92498 25.1371 9.93621 25.3029 10.3226C25.4025 10.5548 25.2381 10.9889 25.3812 11.1601C25.5259 11.3533 25.7299 11.6509 25.8882 11.8289C25.9159 11.471 25.9998 11.1157 25.979 10.7551C25.953 10.552 25.8337 10.3563 25.6944 10.2389ZM25.7727 10.7551C25.8641 10.8396 25.7794 11.1108 25.6184 11.04C25.4595 10.9089 25.622 10.6782 25.7727 10.7551Z" fill="#42AB65"/>
<path d="M6.15951 2.63473C7.00067 3.37309 7.82807 4.13021 8.67 4.86975C8.67407 4.87327 8.67733 4.87777 8.67969 4.88279C8.68204 4.88797 8.68316 4.89351 8.68316 4.8992C8.68316 4.90489 8.68204 4.91059 8.67969 4.91565C8.67733 4.92083 8.67407 4.92518 8.67 4.92885C8.48679 5.08027 8.30499 5.23675 8.11474 5.37876C8.10819 5.38398 8.10017 5.38647 8.0922 5.38599C8.08406 5.38564 8.07638 5.38228 8.07043 5.37659C7.49109 4.86137 7.01773 4.23019 6.52234 3.62753C6.5178 3.62133 6.51154 3.61664 6.50434 3.61446C6.4971 3.61212 6.48943 3.61245 6.48257 3.61513C6.4755 3.61781 6.46941 3.62284 6.46517 3.62937C6.46097 3.63607 6.45874 3.64378 6.45891 3.65181C6.4356 4.52769 6.72279 5.30305 7.02934 6.11379C7.04597 6.16546 7.07349 6.13787 7.08133 6.13305C7.44381 5.90995 8.22047 4.96238 8.67 4.86975C8.62787 4.98614 8.73913 4.92885 7.43756 6.20844C6.48664 7.14328 5.73553 7.64142 4.7757 8.56369C4.38943 8.95046 3.95332 9.17292 3.81224 9.74914C3.70059 10.1352 3.70592 10.5448 3.67053 10.9424V10.9466C3.61667 11.2806 3.42251 11.5628 3.2617 11.8454C2.63444 12.819 2.07028 13.8371 1.57299 14.8927C1.56923 14.9009 1.56829 14.9103 1.57048 14.919C1.57251 14.9279 1.57768 14.9356 1.58473 14.9407C2.06261 15.2843 2.468 15.464 3.08586 15.3347C3.64141 15.2025 3.99953 14.8233 4.38424 14.4264C4.7832 13.994 5.17311 13.4804 5.71517 13.2538C5.88039 13.1883 6.34414 13.318 6.18051 13.6032C5.97463 13.9306 5.57816 13.9741 5.26607 14.1305C4.66371 14.3801 4.32879 15.0185 3.79736 15.3806C3.58128 15.5605 3.31979 15.6488 3.06394 15.7397C3.0558 15.7428 3.04891 15.749 3.04452 15.757C3.03999 15.765 3.03842 15.7744 3.03983 15.7836C3.06676 15.9821 3.42956 15.9094 3.54042 15.8644L3.54402 15.8623C4.51701 15.3722 5.24477 14.4146 6.29559 14.0774H6.29919C6.96784 13.8401 7.79126 13.754 8.45533 13.8401C9.34988 13.987 10.0994 14.1751 10.9042 14.8897L10.9088 14.8927C10.9088 14.8927 11.6635 15.551 11.6529 16.0563C11.6525 16.0627 11.6508 16.0689 11.6477 16.0742C11.6445 16.0798 11.6402 16.0843 11.635 16.0875C11.6297 16.0905 11.6239 16.0922 11.6179 16.0924C11.612 16.0924 11.606 16.0908 11.6009 16.0878C10.9059 15.7091 10.0994 15.6163 9.23824 15.8623C9.3948 15.4314 9.96741 15.3521 10.2569 15.3521C9.5058 14.8975 8.66327 15.1473 7.98561 15.3521C8.37703 14.6776 9.17027 14.5965 9.3948 14.5938C8.67566 14.3166 8.0451 14.3126 7.0461 14.4264C6.17739 14.5687 5.34 15.1195 4.62441 15.6163C4.1658 15.9279 3.67272 16.4091 3.08586 16.2223C2.51434 16.0049 2.0053 15.6491 1.4781 15.3347C1.47371 15.3322 1.46901 15.3307 1.46416 15.3302C1.45931 15.3298 1.4543 15.3304 1.44975 15.332C1.00757 15.492 0.486004 15.4386 0.10614 15.1441C-0.0711086 15.0158 -0.000176936 14.7381 0.128376 14.5975C0.824374 13.7418 1.57017 12.9334 2.29858 12.1093C2.58214 11.7527 2.96232 11.3985 2.95982 10.8905C2.9736 10.2913 2.96749 9.59353 3.43034 9.16537C4.44356 8.15031 5.5863 7.29569 6.71134 6.43122C6.7179 6.426 6.72261 6.41865 6.72463 6.41026C6.72669 6.40173 6.72587 6.39287 6.72261 6.38496C6.22341 5.22469 6.11383 3.92568 6.10144 2.66271C6.10161 2.65567 6.1038 2.6488 6.1074 2.64277C6.11117 2.63691 6.11631 2.63222 6.12227 2.62937C6.12836 2.62635 6.13509 2.62535 6.14169 2.62635C6.14824 2.62719 6.15454 2.63021 6.15951 2.63473Z" fill="#42AB65"/>
<path d="M4.30554 10.2389C4.48344 9.99776 4.811 9.82697 5.24501 9.56885C4.96803 9.92498 4.86277 9.93621 4.697 10.3226C4.5974 10.5548 4.76184 10.9889 4.6187 11.1601C4.47401 11.3533 4.26998 11.6509 4.11168 11.8289C4.08397 11.471 4.00004 11.1157 4.02086 10.7551C4.04686 10.552 4.16619 10.3563 4.30554 10.2389ZM4.22726 10.7551C4.13581 10.8396 4.22053 11.1108 4.38148 11.04C4.5404 10.9089 4.37788 10.6782 4.22726 10.7551Z" fill="#42AB65"/>
<path d="M13.7124 11.0928C14.0708 11.4011 14.1981 11.8241 14.1109 12.2099C13.983 12.7837 13.8595 13.3588 13.7119 13.9277C13.8343 12.991 13.8592 12.0396 13.7124 11.0928Z" fill="#42AB65"/>
<path d="M15.8768 12.1704C15.8116 11.7745 15.9225 11.3395 16.3261 11.0503C16.0973 11.9882 16.1778 12.94 16.1944 13.8832C16.1255 13.306 15.9665 12.7412 15.8768 12.1704Z" fill="#42AB65"/>
</g>
<defs>
<clipPath id="clip0_2178_16">
<rect width="30" height="17" fill="white"/>
</clipPath>
</defs>
</svg>
